<svg width="124" height="100" viewBox="0 0 124 100" fill="none" xmlns="http://www.w3.org/2000/svg">
<path d="M19.9441 100L2.16783 86.0262C10.2611 77.5837 15.7529 69.7234 18.6434 62.4454C21.5338 54.8763 22.979 47.3071 22.979 39.738L34.2517 48.0349H0V0H48.1259V33.1878C48.1259 45.706 46.1026 57.3508 42.0559 68.1223C38.0093 78.8937 30.6387 89.5196 19.9441 100ZM95.8182 100L78.042 86.0262C86.1352 77.5837 91.627 69.7234 94.5175 62.4454C97.4079 54.8763 98.8531 47.3071 98.8531 39.738L110.126 48.0349H75.8741V0H124V33.1878C124 45.706 121.977 57.3508 117.93 68.1223C113.883 78.8937 106.513 89.5196 95.8182 100Z" fill="#E9EBF1"/>
</svg>
