<svg width="1920.000000" height="313.000000" viewBox="0 0 1920 313" fill="none" xmlns="http://www.w3.org/2000/svg" xmlns:xlink="http://www.w3.org/1999/xlink">
	<desc>
			Created with Pixso.
	</desc>
	<defs>
		<clipPath id="clip107_6995">
			<rect id="background" rx="-0.500000" width="1919.000000" height="312.000000" transform="translate(0.500000 0.500000)" fill="white" fill-opacity="0"/>
		</clipPath>
		<radialGradient gradientTransform="translate(1856.83 438.898) rotate(-170.787) scale(1298.63 423.964)" cx="0.000000" cy="0.000000" r="1.000000" id="paint_radial_107_6996_0" gradientUnits="userSpaceOnUse">
			<stop stop-color="#FFFFFF"/>
			<stop offset="1.000000" stop-color="#FFFFFF" stop-opacity="0.000000"/>
		</radialGradient>
	</defs>
	<g clip-path="url(#clip107_6995)">
		<g opacity="0.150000">
			<path id="Exclude" d="M1728.5 145C1882.13 -69.0005 2247.47 -12.1675 2255.97 98.4995L2278 432L-115.798 462L-174.5 204C-209.286 128 -183.957 26.5 -74.5 26.5C77.3955 26.5 212.54 121.333 354 219.5C486.763 105 652.214 127.866 737 145C833.5 164.5 1023.79 239.833 1098 312.5L1206 204C1322.53 103.5 1461.81 25.9995 1728.5 145ZM1901.08 191.749C2015.4 175.248 2021.5 279.883 2000.53 310.133L1930.29 325.999L1562.57 325.999C1552.36 325.999 1549.41 261.254 1615.26 208.249C1664.71 168.444 1721.46 193.642 1745.29 204.229C1750.65 206.608 1754.35 208.249 1755.93 208.249C1829.04 106.25 1878.5 145.249 1901.08 191.749ZM-19.1992 324.451C-38.6846 304.339 -33.0195 234.774 73.2295 245.745C94.2139 214.83 140.179 188.902 208.126 256.715C209.593 256.715 213.027 255.624 218.006 254.042C240.162 247.003 292.896 230.25 338.857 256.715C400.059 291.954 397.312 334.999 387.82 334.999L46.082 334.999L-19.1992 324.451Z" clip-rule="evenodd" fill="#1A3196" fill-opacity="1.000000" fill-rule="evenodd"/>
			<path id="Exclude" d="M1728.5 145C1882.13 -69.0005 2247.47 -12.1675 2255.97 98.4995L2278 432L-115.798 462L-174.5 204C-209.286 128 -183.957 26.5 -74.5 26.5C77.3955 26.5 212.54 121.333 354 219.5C486.763 105 652.214 127.866 737 145C833.5 164.5 1023.79 239.833 1098 312.5L1206 204C1322.53 103.5 1461.81 25.9995 1728.5 145ZM1901.08 191.749C2015.4 175.248 2021.5 279.883 2000.53 310.133L1930.29 325.999L1562.57 325.999C1552.36 325.999 1549.41 261.254 1615.26 208.249C1664.71 168.444 1721.46 193.642 1745.29 204.229C1750.65 206.608 1754.35 208.249 1755.93 208.249C1829.04 106.25 1878.5 145.249 1901.08 191.749ZM-19.1992 324.451C-38.6846 304.339 -33.0195 234.774 73.2295 245.745C94.2139 214.83 140.179 188.902 208.126 256.715C209.593 256.715 213.027 255.624 218.006 254.042C240.162 247.003 292.896 230.25 338.857 256.715C400.059 291.954 397.312 334.999 387.82 334.999L46.082 334.999L-19.1992 324.451Z" clip-rule="evenodd" fill="url(#paint_radial_107_6996_0)" fill-opacity="0.200000" fill-rule="evenodd"/>
		</g>
		<g opacity="0.300000">
			<path id="Vector 53" d="M1563.03 159.92C1631.75 175.71 1650.93 198.59 1651.93 208.05C1658.09 128.03 1672.41 24.78 1781.29 105C1869.99 214.59 1880.51 332.9 1874.68 378.35L1580.01 416C1576.02 408.59 1409.2 159.92 1563.03 159.92Z" stroke="#FFFFFF" stroke-opacity="1.000000" stroke-width="3.000000"/>
		</g>
		<g opacity="0.300000">
			<path id="Vector 52" d="M837.15 227.55C877.65 221.55 917.65 240.89 916.65 247.55C916.65 182.55 1003.15 136.05 1046.15 235.55C1081.15 219.72 1160.65 197.55 1198.65 235.55C1217.85 258.75 1206.65 275.22 1198.65 280.55C1239.31 263.55 1330.85 239.75 1371.65 280.55C1412.45 321.35 1408.32 342.55 1401.15 348.05L752.65 337.55C736.15 293.72 777.55 227.55 837.15 227.55Z" stroke="#FFFFFF" stroke-opacity="1.000000" stroke-width="3.000000"/>
		</g>
	</g>
</svg>
