<svg width="36" height="36" viewBox="0 0 36 36" fill="none" xmlns="http://www.w3.org/2000/svg">
<path d="M9.42826 24.2844C9.64086 23.7203 9.67765 23.1813 9.17425 22.8316C8.94109 22.6696 8.71096 22.5047 8.48779 22.3304C7.21832 21.348 6.16381 20.1731 5.51775 18.6795C4.4686 16.2586 4.70493 13.9216 6.08031 11.6995C7.50696 9.39466 9.62446 7.9527 12.1047 7.03488C16.2159 5.51234 20.3749 5.43701 24.5322 6.83905C24.8951 7.01191 25.2232 7.18005 25.5298 7.34991C29.0016 9.27286 31.2579 13.0859 31.1245 17.0524C31.0825 18.3005 30.9211 19.5216 30.6548 20.7426C29.9569 23.9426 27.224 26.498 23.1173 27.8261C20.91 28.54 20.3795 28.6471 17.6417 28.8886C12.6224 29.3313 12.1661 29.1543 9.17425 29.1543C8.91758 29.2081 7.60305 29.1543 7.14674 29.1543C6.69044 29.1543 5.94682 29.0214 5.77784 28.7115C5.60993 28.4016 6.48082 27.6396 6.69044 27.3834C6.93428 27.0865 7.33676 26.7713 7.60305 26.498C8.44651 25.6358 9.00446 25.4091 9.42826 24.2844Z" fill="#80848E"/>
</svg>
