<svg width="28" height="30" viewBox="0 0 28 30" fill="none" xmlns="http://www.w3.org/2000/svg">
<g filter="url(#filter0_d_107_2273)">
<path d="M14.335 3.41025L12.5908 7.77081C12.5375 7.90396 12.586 8.05619 12.7064 8.1341L20.8553 13.4069C20.9444 13.4646 21.0574 13.4709 21.1524 13.4234L23.616 12.1915C23.8022 12.0984 23.8393 11.8486 23.6882 11.7054L14.8199 3.30388C14.6661 3.15815 14.4137 3.21351 14.335 3.41025Z" fill="#80848E"/>
<path d="M10.8437 9.77031L11.838 9.10744C11.9361 9.04204 12.0634 9.04016 12.1634 9.10266L19.5837 13.7404C19.7737 13.8591 19.7712 14.1367 19.5791 14.252L17.6763 15.3937C17.5696 15.4577 17.4345 15.4492 17.3366 15.3723L10.8247 10.2558C10.6642 10.1297 10.6738 9.88355 10.8437 9.77031Z" fill="#80848E"/>
<path d="M8.29959 11.7935L9.8404 11.0741C9.93847 11.0283 10.0536 11.0389 10.1417 11.1018L16.7501 15.8215C16.8872 15.9194 16.9168 16.1109 16.8158 16.2457L15.684 17.7546C15.5831 17.8893 15.3911 17.9145 15.2588 17.8106L8.24126 12.3013C8.06535 12.1632 8.09695 11.8882 8.29959 11.7935Z" fill="#80848E"/>
<path d="M4.46047 13.3465L6.85088 12.5497C6.94427 12.5186 7.04699 12.5352 7.12575 12.5943L14.7655 18.3241C14.8959 18.4219 14.9243 18.6059 14.8296 18.7385L12.705 21.7119C12.5972 21.8627 12.3798 21.8807 12.2487 21.7496L4.3432 13.8432C4.18552 13.6855 4.24891 13.417 4.46047 13.3465Z" fill="#80848E"/>
</g>
<defs>
<filter id="filter0_d_107_2273" x="-2" y="0" width="32" height="32" filterUnits="userSpaceOnUse" color-interpolation-filters="sRGB">
<feFlood flood-opacity="0" result="BackgroundImageFix"/>
<feColorMatrix in="SourceAlpha" type="matrix" values="0 0 0 0 0 0 0 0 0 0 0 0 0 0 0 0 0 0 127 0" result="hardAlpha"/>
<feOffset dy="4"/>
<feGaussianBlur stdDeviation="2"/>
<feComposite in2="hardAlpha" operator="out"/>
<feColorMatrix type="matrix" values="0 0 0 0 0 0 0 0 0 0 0 0 0 0 0 0 0 0 0.25 0"/>
<feBlend mode="normal" in2="BackgroundImageFix" result="effect1_dropShadow_107_2273"/>
<feBlend mode="normal" in="SourceGraphic" in2="effect1_dropShadow_107_2273" result="shape"/>
</filter>
</defs>
</svg>
