<svg width="36" height="37" viewBox="0 0 36 37" fill="none" xmlns="http://www.w3.org/2000/svg">
<g clip-path="url(#clip0_102_1489)">
<path d="M18 27.5C12.201 27.5 7.5 22.799 7.5 17M18 27.5C23.799 27.5 28.5 22.799 28.5 17M18 27.5V32M18 32H12M18 32H24" stroke="#80848E" stroke-width="1.5" stroke-linecap="round"/>
<path d="M18 23C14.6863 23 12 20.3137 12 17V11C12 7.68629 14.6863 5 18 5C21.3137 5 24 7.68629 24 11V17C24 20.3137 21.3137 23 18 23Z" fill="#80848E" stroke="#80848E" stroke-width="1.5" stroke-linecap="round"/>
<path d="M3.96162 35.3667L33.8082 5.52007C34.5334 4.7949 34.5334 3.61917 33.8082 2.89399C33.0871 2.17292 31.9195 2.16825 31.1927 2.88353L1.10828 32.4904C0.252757 33.3323 0.312836 34.7293 1.23748 35.4947C2.0426 36.1612 3.22257 36.1057 3.96162 35.3667Z" fill="#80848E" stroke="#2C2E32" stroke-width="2" stroke-linecap="round"/>
</g>
<defs>
<clipPath id="clip0_102_1489">
<rect width="36" height="36" fill="white" transform="translate(0 0.5)"/>
</clipPath>
</defs>
</svg>
