<svg width="40" height="40" viewBox="0 0 40 40" fill="none" xmlns="http://www.w3.org/2000/svg">
<path d="M15.3106 17.7704L24.6828 13.0468M24.4518 27.4999L15.1651 22.4999M34.1673 10.8333C34.1673 13.5947 31.9288 15.8333 29.1673 15.8333C26.4058 15.8333 24.1673 13.5947 24.1673 10.8333C24.1673 8.07184 26.4058 5.83325 29.1673 5.83325C31.9288 5.83325 34.1673 8.07184 34.1673 10.8333ZM15.834 19.9999C15.834 22.7614 13.5954 24.9999 10.834 24.9999C8.07257 24.9999 5.83398 22.7614 5.83398 19.9999C5.83398 17.2384 8.07257 14.9999 10.834 14.9999C13.5954 14.9999 15.834 17.2384 15.834 19.9999ZM34.1673 29.1666C34.1673 31.9281 31.9288 34.1666 29.1673 34.1666C26.4058 34.1666 24.1673 31.9281 24.1673 29.1666C24.1673 26.4051 26.4058 24.1666 29.1673 24.1666C31.9288 24.1666 34.1673 26.4051 34.1673 29.1666Z" stroke="#7881E1" stroke-width="1.5" stroke-linecap="round"/>
</svg>
