<svg width="37" height="37" viewBox="0 0 37 37" fill="none" xmlns="http://www.w3.org/2000/svg">
<rect width="37" height="37" rx="18.5" fill="white" fill-opacity="0.08"/>
<path fill-rule="evenodd" clip-rule="evenodd" d="M23.6381 22.2923C24.8254 20.761 25.385 18.8346 25.203 16.9052C25.021 14.9758 24.111 13.1882 22.6583 11.9061C21.2055 10.624 19.3191 9.94371 17.3828 10.0036C15.4465 10.0636 13.6057 10.8592 12.235 12.2287C10.8631 13.5992 10.0652 15.4414 10.0038 17.3799C9.94247 19.3185 10.6223 21.2075 11.9048 22.662C13.1874 24.1165 14.976 25.0271 16.9063 25.2081C18.8366 25.3892 20.7632 24.8271 22.2936 23.6364L22.3346 23.6792L26.3737 27.7209C26.4621 27.8094 26.5671 27.8796 26.6827 27.9275C26.7983 27.9753 26.9222 28 27.0473 28C27.1724 28 27.2963 27.9753 27.4119 27.9275C27.5275 27.8796 27.6325 27.8094 27.721 27.7209C27.8094 27.6324 27.8796 27.5273 27.9275 27.4117C27.9754 27.296 28 27.1721 28 27.0469C28 26.9218 27.9754 26.7978 27.9275 26.6822C27.8796 26.5666 27.8094 26.4615 27.721 26.373L23.6809 22.3323C23.667 22.3186 23.6527 22.3053 23.6381 22.2923ZM21.6614 13.5766C22.199 14.1057 22.6266 14.7361 22.9194 15.4313C23.2123 16.1266 23.3646 16.8729 23.3677 17.6274C23.3708 18.3818 23.2245 19.1294 22.9373 19.827C22.6501 20.5246 22.2277 21.1585 21.6944 21.6919C21.1612 22.2254 20.5276 22.648 19.8303 22.9353C19.1329 23.2226 18.3856 23.3689 17.6315 23.3658C16.8774 23.3628 16.1313 23.2104 15.4363 22.9174C14.7413 22.6244 14.1112 22.1967 13.5823 21.6589C12.5254 20.5841 11.9357 19.1351 11.9418 17.6274C11.948 16.1197 12.5494 14.6755 13.6151 13.6094C14.6808 12.5432 16.1244 11.9416 17.6315 11.9355C19.1386 11.9293 20.5871 12.5192 21.6614 13.5766Z" fill="#EBECEE"/>
</svg>
