<svg width="201" height="141" viewBox="0 0 201 141" fill="none" xmlns="http://www.w3.org/2000/svg">
<ellipse cx="107.199" cy="5.40003" rx="3.39997" ry="1.59998" fill="#049240"/>
<ellipse cx="107.398" cy="28.1997" rx="25.9997" ry="22.7998" fill="#25CE74"/>
<path d="M41.4004 63.6486C41.4004 54.1494 49.101 46.4487 58.6002 46.4487H70.6001V80.8484H58.6002C49.101 80.8484 41.4004 73.1478 41.4004 63.6486Z" fill="#698EFF"/>
<path d="M47.7988 61.4486C47.7988 55.3735 52.7236 50.4487 58.7987 50.4487H58.9987V72.4485H58.7987C52.7236 72.4485 47.7988 67.5237 47.7988 61.4486Z" fill="#90ADFF"/>
<path d="M181.798 65.8487L121.799 88.0484C104.999 89.3151 70.8394 91.9685 68.5994 92.4485C65.3994 92.4485 59.5995 94.7818 55.7995 96.6484L8.36876 128.254C8.12386 128.417 7.90007 128.61 7.70249 128.828L3.7716 133.167C-3.66893 141.381 2.98167 154.437 14 153.248L69.1994 123.848C70.9994 123.448 71.3994 124.248 70.3994 125.448L52.5996 134.248L45.3996 156.648L126.399 157.648L140.199 121.048L176.798 96.6484C179.798 97.4484 188.798 96.2484 193.198 94.4484C208.798 86.6485 197.398 75.4486 188.798 74.4486C190.998 65.0487 184.132 64.8487 181.798 65.8487Z" fill="#698EFF"/>
<path d="M169.398 63.6486C169.398 54.1494 161.698 46.4487 152.199 46.4487H140.199V80.8484H152.199C161.698 80.8484 169.398 73.1478 169.398 63.6486Z" fill="#698EFF"/>
<path d="M82.1992 88.2483C87.7992 103.648 132.399 109.248 134.399 89.6483L82.1992 88.2483Z" fill="#4550BF"/>
<path d="M164.199 61.0487C164.199 54.9736 159.274 50.0488 153.199 50.0488H152.999V72.0486H153.199C159.274 72.0486 164.199 67.1238 164.199 61.0487Z" fill="#90ADFF"/>
<rect x="53.7988" y="25.6489" width="106.799" height="69.1993" rx="34.5997" fill="#698EFF"/>
<ellipse cx="89.6" cy="51.0487" rx="4.59995" ry="4.59995" fill="#22237E"/>
<ellipse cx="151.198" cy="51.0487" rx="4.59995" ry="4.59995" fill="#22237E"/>
<path d="M135.599 40.449H108.179C105.812 40.449 103.264 40.9029 101.34 42.2807C99.1401 43.8554 98.5996 46.4427 98.5996 49.1478V62.4488C98.5996 69.6487 105.2 71.1994 108 72.4487C112.399 73.3994 119.399 73.9994 129.199 72.4487C139.155 70.8732 141.933 63.1154 141.999 58.4488C142.031 56.1996 142.799 50.5997 141.999 46.2489C141.11 41.4132 137.733 40.5156 135.599 40.449Z" fill="#9DB7FF"/>
<path d="M104.198 78.4486C99.8783 74.1286 90.9317 72.5153 86.9984 72.2486C86.5984 72.0486 85.7184 72.4086 85.3984 75.4486C85.3984 85.0485 94.1983 85.5818 98.5983 84.6485C100.932 83.5818 105.318 80.8485 104.198 78.4486Z" fill="#DC4DA8"/>
<path d="M100.598 83.2485C96.5983 78.8485 92.1984 76.2485 88.1984 75.4486C87.7984 75.2486 85.3984 74.9426 85.3984 75.4486C85.3984 85.0485 94.1983 85.5818 98.5983 84.6485C100.932 83.5819 100.979 83.667 100.598 83.2485Z" fill="#CE9BE4"/>
<rect x="109.398" y="58.4487" width="10.7999" height="5.99994" rx="2.99997" fill="#698EFF"/>
<rect x="125.398" y="58.4487" width="10.7999" height="5.99994" rx="2.99997" fill="#698EFF"/>
<path d="M102.199 25.5999C117.945 40.5891 170.777 35.0076 132.655 25.7999C111.771 25.7999 106.895 25.5999 102.199 25.5999Z" fill="#049240"/>
<path d="M103.799 25.3999C118.999 39.3998 169.998 33.9998 133.199 25.3999H103.799Z" fill="#62EF8E"/>
<path d="M126.998 25.3999C125.798 14.8 116.198 8.80007 110.398 5.6001C116.798 11.8 121.798 16.8 123.598 25.3999H126.998Z" fill="#62EF8E"/>
<path d="M116.198 25.3997C114.998 14.7998 111.998 8.99987 107.998 5.3999C111.798 11.3998 110.998 16.9998 112.198 25.3997H116.198Z" fill="#62EF8E"/>
<path d="M98.9993 25.6797C100.199 15.0798 103.199 8.99987 107.199 5.3999C103.399 11.3998 104.199 17.2798 102.999 25.6797H98.9993Z" fill="#62EF8E"/>
<path d="M87.7998 25.6797C89.0142 14.7586 98.7298 8.69684 104.6 5.3999C98.1226 11.7877 93.1264 16.8192 91.3047 25.6797H87.7998Z" fill="#62EF8E"/>
</svg>
