<svg width="360" height="780" viewBox="0 0 360 780" fill="none" xmlns="http://www.w3.org/2000/svg">
<g clip-path="url(#clip0_122_10088)">
<rect width="360" height="780" fill="url(#paint0_radial_122_10088)"/>
<path opacity="0.3" d="M47.3457 714.67C101.275 714.67 42.7933 785.233 41.3925 787.334L-61.9129 776.653C-63.9556 763.755 -60.267 730.183 -29.1702 699.087C9.00035 676.324 14.0197 705.623 16.1792 728.327C16.5294 725.643 23.253 719.152 47.3457 714.67Z" stroke="white" stroke-width="2"/>
<path opacity="0.15" fill-rule="evenodd" clip-rule="evenodd" d="M505.453 660.631C551.854 585.691 616.348 632.382 618.916 671.137L625.57 787.924L-97.4062 798.43L-122 712.5C-132.506 685.886 -158.058 614.5 -125 614.5C-55.6338 614.5 47.5001 660.631 83.0001 698.451C139.5 665 173.932 677.505 197.5 686.5C220.438 695.255 262.088 713.553 284.5 739L339 686.5C374.195 651.306 424.908 618.958 505.453 660.631ZM-30.1234 742.103C-73.027 735.847 -75.3144 775.516 -67.4463 786.985L-41.0856 793H96.9082C100.741 793 101.85 768.454 77.1372 748.359C58.5782 733.267 37.284 742.821 28.3374 746.834L28.3372 746.835C26.327 747.736 24.9401 748.359 24.3479 748.359C-3.08945 709.688 -21.6501 724.474 -30.1234 742.103ZM379.617 781.903C384.893 774.091 383.359 747.07 354.589 751.331C348.907 739.323 336.46 729.251 318.061 755.592C317.664 755.592 316.734 755.168 315.385 754.554C309.386 751.82 295.106 745.313 282.661 755.592C266.089 769.28 266.832 786 269.403 786H361.94L379.617 781.903Z" fill="#D9D9D9"/>
<path opacity="0.2" d="M357 591H244C267.846 558.854 293.625 571.886 308.019 576.809C346.903 569.859 354.637 586.27 357 591Z" fill="white"/>
<path opacity="0.2" d="M181 504.502H207.264C201.721 499.141 195.729 501.314 192.384 502.135C183.346 500.976 181.549 503.713 181 504.502Z" fill="white"/>
<path opacity="0.3" d="M164.795 782.888C156.681 757.37 177.041 718.85 206.353 718.85C226.271 715.357 245.944 726.612 245.452 730.493C245.452 692.653 287.993 665.582 309.14 723.507C326.353 714.289 365.452 701.385 384.14 723.507C393.583 737.013 388.075 746.6 384.14 749.704C404.14 739.808 449.157 725.952 469.223 749.704C489.288 773.457 487.255 785.798 483.731 789L164.795 782.888Z" stroke="white" stroke-width="2"/>
<path opacity="0.2" d="M126.966 637.357C133.108 631.243 144.881 639.905 150 645H59C62.4125 638.301 77.0104 633.112 82.4135 638.301C103.268 611.316 120.615 629.337 126.966 637.357Z" fill="white"/>
<path opacity="0.2" d="M-31.4219 525.266C-38.5094 518.278 -52.0938 528.177 -58 534H47C43.0625 526.344 26.2188 520.413 19.9844 526.344C-4.07812 495.504 -24.0938 516.1 -31.4219 525.266Z" fill="white"/>
<g opacity="0.12">
<g filter="url(#filter0_f_122_10088)">
<rect x="227" width="6" height="6" fill="white"/>
</g>
<g filter="url(#filter1_f_122_10088)">
<rect x="53" y="57" width="6" height="6" fill="white"/>
</g>
<g filter="url(#filter2_f_122_10088)">
<rect x="94" y="767" width="6" height="6" fill="white"/>
</g>
<g filter="url(#filter3_f_122_10088)">
<rect x="22" y="655" width="6" height="6" fill="white"/>
</g>
</g>
<g opacity="0.12">
<g filter="url(#filter4_f_122_10088)">
<rect x="125" y="242" width="3" height="3" fill="white"/>
</g>
<g filter="url(#filter5_f_122_10088)">
<rect x="209" y="272" width="3" height="3" fill="white"/>
</g>
<g filter="url(#filter6_f_122_10088)">
<rect x="201" y="276" width="3" height="3" fill="white"/>
</g>
<g filter="url(#filter7_f_122_10088)">
<rect x="282" y="384" width="3" height="3" fill="white"/>
</g>
<g filter="url(#filter8_f_122_10088)">
<rect x="168" y="516" width="3" height="3" fill="white"/>
</g>
<g filter="url(#filter9_f_122_10088)">
<rect x="13" y="388" width="3" height="3" fill="white"/>
</g>
<g filter="url(#filter10_f_122_10088)">
<rect x="323" y="584" width="3" height="3" fill="white"/>
</g>
<g filter="url(#filter11_f_122_10088)">
<rect x="327" y="496" width="3" height="3" fill="white"/>
</g>
<g filter="url(#filter12_f_122_10088)">
<rect x="206" y="744" width="3" height="3" fill="white"/>
</g>
<g filter="url(#filter13_f_122_10088)">
<rect x="248" y="668" width="3" height="3" fill="white"/>
</g>
<g filter="url(#filter14_f_122_10088)">
<rect x="213" y="637" width="3" height="3" fill="white"/>
</g>
<g filter="url(#filter15_f_122_10088)">
<rect x="77" y="559" width="3" height="3" fill="white"/>
</g>
<g filter="url(#filter16_f_122_10088)">
<rect x="47" y="572" width="3" height="3" fill="white"/>
</g>
</g>
<path d="M289.444 613.8L290.867 609L292.556 613.8L297 615L292.556 616.6L291.044 621L289.444 616.6L285 615L289.444 613.8Z" fill="#D09FF8"/>
<path d="M29.4444 491.8L30.8667 487L32.5556 491.8L37 493L32.5556 494.6L31.0444 499L29.4444 494.6L25 493L29.4444 491.8Z" fill="#73BDC5"/>
<path d="M100.963 705.2L101.911 702L103.037 705.2L106 706L103.037 707.067L102.03 710L100.963 707.067L98 706L100.963 705.2Z" fill="#73BDC5"/>
<path d="M263.926 69.4L265.822 63L268.074 69.4L274 71L268.074 73.1333L266.059 79L263.926 73.1333L258 71L263.926 69.4Z" fill="#3F99F2"/>
</g>
<defs>
<filter id="filter0_f_122_10088" x="223" y="-4" width="14" height="14" filterUnits="userSpaceOnUse" color-interpolation-filters="sRGB">
<feFlood flood-opacity="0" result="BackgroundImageFix"/>
<feBlend mode="normal" in="SourceGraphic" in2="BackgroundImageFix" result="shape"/>
<feGaussianBlur stdDeviation="2" result="effect1_foregroundBlur_122_10088"/>
</filter>
<filter id="filter1_f_122_10088" x="49" y="53" width="14" height="14" filterUnits="userSpaceOnUse" color-interpolation-filters="sRGB">
<feFlood flood-opacity="0" result="BackgroundImageFix"/>
<feBlend mode="normal" in="SourceGraphic" in2="BackgroundImageFix" result="shape"/>
<feGaussianBlur stdDeviation="2" result="effect1_foregroundBlur_122_10088"/>
</filter>
<filter id="filter2_f_122_10088" x="90" y="763" width="14" height="14" filterUnits="userSpaceOnUse" color-interpolation-filters="sRGB">
<feFlood flood-opacity="0" result="BackgroundImageFix"/>
<feBlend mode="normal" in="SourceGraphic" in2="BackgroundImageFix" result="shape"/>
<feGaussianBlur stdDeviation="2" result="effect1_foregroundBlur_122_10088"/>
</filter>
<filter id="filter3_f_122_10088" x="18" y="651" width="14" height="14" filterUnits="userSpaceOnUse" color-interpolation-filters="sRGB">
<feFlood flood-opacity="0" result="BackgroundImageFix"/>
<feBlend mode="normal" in="SourceGraphic" in2="BackgroundImageFix" result="shape"/>
<feGaussianBlur stdDeviation="2" result="effect1_foregroundBlur_122_10088"/>
</filter>
<filter id="filter4_f_122_10088" x="121" y="238" width="11" height="11" filterUnits="userSpaceOnUse" color-interpolation-filters="sRGB">
<feFlood flood-opacity="0" result="BackgroundImageFix"/>
<feBlend mode="normal" in="SourceGraphic" in2="BackgroundImageFix" result="shape"/>
<feGaussianBlur stdDeviation="2" result="effect1_foregroundBlur_122_10088"/>
</filter>
<filter id="filter5_f_122_10088" x="205" y="268" width="11" height="11" filterUnits="userSpaceOnUse" color-interpolation-filters="sRGB">
<feFlood flood-opacity="0" result="BackgroundImageFix"/>
<feBlend mode="normal" in="SourceGraphic" in2="BackgroundImageFix" result="shape"/>
<feGaussianBlur stdDeviation="2" result="effect1_foregroundBlur_122_10088"/>
</filter>
<filter id="filter6_f_122_10088" x="197" y="272" width="11" height="11" filterUnits="userSpaceOnUse" color-interpolation-filters="sRGB">
<feFlood flood-opacity="0" result="BackgroundImageFix"/>
<feBlend mode="normal" in="SourceGraphic" in2="BackgroundImageFix" result="shape"/>
<feGaussianBlur stdDeviation="2" result="effect1_foregroundBlur_122_10088"/>
</filter>
<filter id="filter7_f_122_10088" x="278" y="380" width="11" height="11" filterUnits="userSpaceOnUse" color-interpolation-filters="sRGB">
<feFlood flood-opacity="0" result="BackgroundImageFix"/>
<feBlend mode="normal" in="SourceGraphic" in2="BackgroundImageFix" result="shape"/>
<feGaussianBlur stdDeviation="2" result="effect1_foregroundBlur_122_10088"/>
</filter>
<filter id="filter8_f_122_10088" x="164" y="512" width="11" height="11" filterUnits="userSpaceOnUse" color-interpolation-filters="sRGB">
<feFlood flood-opacity="0" result="BackgroundImageFix"/>
<feBlend mode="normal" in="SourceGraphic" in2="BackgroundImageFix" result="shape"/>
<feGaussianBlur stdDeviation="2" result="effect1_foregroundBlur_122_10088"/>
</filter>
<filter id="filter9_f_122_10088" x="9" y="384" width="11" height="11" filterUnits="userSpaceOnUse" color-interpolation-filters="sRGB">
<feFlood flood-opacity="0" result="BackgroundImageFix"/>
<feBlend mode="normal" in="SourceGraphic" in2="BackgroundImageFix" result="shape"/>
<feGaussianBlur stdDeviation="2" result="effect1_foregroundBlur_122_10088"/>
</filter>
<filter id="filter10_f_122_10088" x="319" y="580" width="11" height="11" filterUnits="userSpaceOnUse" color-interpolation-filters="sRGB">
<feFlood flood-opacity="0" result="BackgroundImageFix"/>
<feBlend mode="normal" in="SourceGraphic" in2="BackgroundImageFix" result="shape"/>
<feGaussianBlur stdDeviation="2" result="effect1_foregroundBlur_122_10088"/>
</filter>
<filter id="filter11_f_122_10088" x="323" y="492" width="11" height="11" filterUnits="userSpaceOnUse" color-interpolation-filters="sRGB">
<feFlood flood-opacity="0" result="BackgroundImageFix"/>
<feBlend mode="normal" in="SourceGraphic" in2="BackgroundImageFix" result="shape"/>
<feGaussianBlur stdDeviation="2" result="effect1_foregroundBlur_122_10088"/>
</filter>
<filter id="filter12_f_122_10088" x="202" y="740" width="11" height="11" filterUnits="userSpaceOnUse" color-interpolation-filters="sRGB">
<feFlood flood-opacity="0" result="BackgroundImageFix"/>
<feBlend mode="normal" in="SourceGraphic" in2="BackgroundImageFix" result="shape"/>
<feGaussianBlur stdDeviation="2" result="effect1_foregroundBlur_122_10088"/>
</filter>
<filter id="filter13_f_122_10088" x="244" y="664" width="11" height="11" filterUnits="userSpaceOnUse" color-interpolation-filters="sRGB">
<feFlood flood-opacity="0" result="BackgroundImageFix"/>
<feBlend mode="normal" in="SourceGraphic" in2="BackgroundImageFix" result="shape"/>
<feGaussianBlur stdDeviation="2" result="effect1_foregroundBlur_122_10088"/>
</filter>
<filter id="filter14_f_122_10088" x="209" y="633" width="11" height="11" filterUnits="userSpaceOnUse" color-interpolation-filters="sRGB">
<feFlood flood-opacity="0" result="BackgroundImageFix"/>
<feBlend mode="normal" in="SourceGraphic" in2="BackgroundImageFix" result="shape"/>
<feGaussianBlur stdDeviation="2" result="effect1_foregroundBlur_122_10088"/>
</filter>
<filter id="filter15_f_122_10088" x="73" y="555" width="11" height="11" filterUnits="userSpaceOnUse" color-interpolation-filters="sRGB">
<feFlood flood-opacity="0" result="BackgroundImageFix"/>
<feBlend mode="normal" in="SourceGraphic" in2="BackgroundImageFix" result="shape"/>
<feGaussianBlur stdDeviation="2" result="effect1_foregroundBlur_122_10088"/>
</filter>
<filter id="filter16_f_122_10088" x="43" y="568" width="11" height="11" filterUnits="userSpaceOnUse" color-interpolation-filters="sRGB">
<feFlood flood-opacity="0" result="BackgroundImageFix"/>
<feBlend mode="normal" in="SourceGraphic" in2="BackgroundImageFix" result="shape"/>
<feGaussianBlur stdDeviation="2" result="effect1_foregroundBlur_122_10088"/>
</filter>
<radialGradient id="paint0_radial_122_10088" cx="0" cy="0" r="1" gradientUnits="userSpaceOnUse" gradientTransform="translate(279 677.5) rotate(88.4614) scale(645.947 314.048)">
<stop stop-color="#3B61F3"/>
<stop offset="0.619542" stop-color="#142986"/>
<stop offset="1" stop-color="#101155"/>
</radialGradient>
<clipPath id="clip0_122_10088">
<rect width="360" height="780" fill="white"/>
</clipPath>
</defs>
</svg>
