<svg width="506" height="805" viewBox="0 0 506 805" fill="none" xmlns="http://www.w3.org/2000/svg">
<path d="M390.082 92.3324C390.082 92.3324 390.418 130.209 388.187 132.239C387.683 132.697 381.952 133.695 380.001 134.671C385.946 145.899 411.809 227.83 411.809 227.83L441.461 132.232L428.406 132.024L426.523 93.0177L390.082 92.3324Z" fill="#F5CFA8"/>
<path d="M407.607 108.25C407.607 108.25 427.587 132.642 425.356 134.671C442.461 137.103 381.952 133.695 380.001 134.671C385.946 145.899 411.809 227.83 411.809 227.83L441.461 132.232L428.406 132.024L426.523 93.0177L407.607 108.25Z" fill="#D5AC81"/>
<path d="M390.768 93.7007L425.669 94.386C425.669 94.386 414.552 110.565 408.378 110.565C400.661 110.565 390.768 93.7007 390.768 93.7007Z" fill="#373431"/>
<path d="M377.327 49.3252C377.327 49.3252 375.97 59.6327 376.177 61.3904C376.133 59.6327 375.198 58.861 373.655 58.861C371.338 58.861 368.06 60.3182 368.604 66.0308C369.093 71.159 371.717 75.0649 377.397 75.0669C377.397 75.0669 392.946 102.848 406.836 102.848C421.499 105.163 438.036 80.3844 438.036 80.3844C438.036 80.3844 446.193 78.1535 448.508 68.8931C449.28 65.8063 448.508 62.7195 446.965 62.7195C443.878 62.2882 442.335 63.4912 442.335 63.4912C442.335 63.4912 446.809 49.0102 443.971 39.0728C441.135 29.1334 441.51 11.868 417.659 9.87389C393.808 7.87776 378.895 28.4563 378.041 34.42C377.187 40.3817 377.327 49.3252 377.327 49.3252Z" fill="#F5CFA8"/>
<path d="M377.327 49.3251C377.327 49.3251 375.97 59.6327 376.177 61.3903C376.133 59.6327 375.198 58.861 373.655 58.861C371.338 58.861 368.06 60.3182 368.604 66.0308C369.093 71.159 371.717 75.0648 377.397 75.0669C377.397 75.0669 392.946 102.848 406.836 102.848C421.499 105.163 438.036 80.3844 438.036 80.3844C438.036 80.3844 446.193 78.1535 448.508 68.8931C449.28 65.8063 448.508 62.7195 446.965 62.7195C443.878 62.2882 442.335 63.4912 442.335 63.4912C442.335 63.4912 443.629 61.8535 440.791 51.916C438.036 71.9802 426.901 92.816 408.38 101.305C389.859 88.9576 382.142 80.3844 379.055 44.9707C379.055 55.7745 377.327 49.3251 377.327 49.3251Z" fill="#D4AC81"/>
<path d="M376.173 61.3907L376.058 61.5842C376.646 61.8044 377.226 62.0266 377.794 62.2673C388.378 56.7317 383.682 36.7519 383.394 24.9645C380.177 28.8229 378.323 32.4325 378.039 34.4204C377.185 40.382 377.325 49.3255 377.325 49.3255C377.325 49.3255 375.747 60.1128 376.173 61.3907Z" fill="#0D1C4B"/>
<path d="M434.225 40.495C435.005 45.759 436.773 59.0261 439.355 63.5925C440.172 65.033 441.676 64.9732 442.246 64.8086C442.971 62.1272 446.529 48.037 443.971 39.073C442.44 33.6999 441.837 26.1908 437.849 20.1078C432.974 27.8803 432.863 31.3416 434.225 40.495Z" fill="#0D1C4B"/>
<path d="M431.531 13.3306C431.348 12.6558 433.123 6.15144 431.531 4.84189C431.531 2.52679 425.345 10.5741 424.586 9.2707C422.536 5.7539 428.055 0.912872 426.129 0.2117C423.612 -0.704819 417.953 7.92868 416.097 7.92868C414.554 7.92868 417.64 5.61359 417.64 2.52679C415.711 2.14053 407.69 10.0378 406.065 9.2707C404.124 8.35463 404.044 4.03885 402.978 1.7551C401.772 -3.62282 399.929 7.18391 391.403 13.3306C389.076 15.0078 386.717 15.623 384.457 17.1891C382.825 18.3201 379.386 15.3781 379.055 15.6457C377.388 16.9965 382.228 21.915 380.763 23.3626C379.336 24.7723 370.567 21.0476 372.11 22.591C373.654 24.1343 376.06 25.0644 375.196 26.4494C374.428 27.6791 373.371 23.7715 372.882 24.906C371.546 28.0023 373.666 32.9423 375.196 34.5536C372.396 35.0119 366.419 35.2302 365.937 36.4815C365.476 37.6797 369.475 37.2337 370.565 38.7966C373.605 43.1579 379.698 49.3888 380.763 48.2961C388.319 46.5839 389.755 34.6915 389.457 34.5536C392.082 38.2596 396.03 39.4539 399.891 39.0613C398.348 34.5536 410.517 34.8603 411.713 30.6334C412.772 38.4603 420.727 36.4815 426.129 45.4118C427.672 41.1123 433.589 42.8989 434.724 36.0579C431.833 53.1238 444.1 51.5269 444.65 46.514C445.588 45.5187 443.878 38.7966 443.878 36.4815C445.42 34.0564 444.65 32.6236 447.737 30.6334C447.463 27.8901 440.456 25.1036 439.949 22.591C439.282 19.2884 446.345 16.459 441.563 14.8226C439.001 13.9458 435.707 13.4115 431.531 13.3306Z" fill="#29174F"/>
<path d="M389.053 51.7202C388.885 51.8058 388.712 51.6382 388.801 51.4715C389.374 50.3862 390.901 47.858 393.089 46.9429C396.884 45.3566 397.321 47.2937 398.516 48.4264C398.655 48.5578 398.584 48.8291 398.394 48.8488L393.743 49.3295L389.053 51.7202Z" fill="#0D1C4B"/>
<path d="M429.844 52.8724C430.01 52.9625 430.187 52.7996 430.104 52.6306C429.559 51.5305 428.1 48.9627 425.936 47.99C422.185 46.3039 421.697 48.2286 420.472 49.3293C420.33 49.4571 420.393 49.7301 420.583 49.7548L425.219 50.3585L429.844 52.8724Z" fill="#0D1C4B"/>
<path d="M375.93 65.0535C375.93 65.0535 376.426 70.939 376.85 72.217C377.276 73.4949 372.193 71.077 372.267 67.7391C372.339 64.4033 375.93 65.0535 375.93 65.0535Z" fill="#373431"/>
<path d="M439.671 76.0426L441.869 68.2289C441.869 68.2289 444.949 68.8914 444.066 71.8918C442.846 76.0425 439.671 76.0426 439.671 76.0426Z" fill="#373431"/>
<path d="M405.593 68.2665C406.905 68.1749 408.034 68.7409 408.116 69.5329C408.199 70.3228 407.202 71.0401 405.889 71.1317C405.25 71.1768 404.973 70.6554 404.521 70.4368C404.046 70.2076 403.41 70.2708 403.368 69.8663C403.285 69.0748 404.282 68.359 405.593 68.2665Z" fill="#0D1C4B"/>
<path d="M410.162 68.2665C411.475 68.1749 412.604 68.7409 412.686 69.5329C412.768 70.3228 411.771 71.0401 410.459 71.1317C409.148 71.2242 408.019 70.6567 407.937 69.8663C407.854 69.0748 408.852 68.359 410.162 68.2665Z" fill="#0D1C4B"/>
<path d="M396.791 55.081C396.659 56.3588 395.519 57.3605 394.248 57.3165C392.976 57.274 392.053 56.2025 392.185 54.9246C392.315 53.6467 393.454 52.6451 394.724 52.6891C395.995 52.7316 396.92 53.8031 396.791 55.081Z" fill="#0D1C4B"/>
<path d="M426.116 55.081C425.984 56.3588 424.844 57.3605 423.573 57.3165C422.301 57.274 421.378 56.2025 421.511 54.9246C421.64 53.6467 422.78 52.6451 424.049 52.6891C425.32 52.7316 426.246 53.8031 426.116 55.081Z" fill="#0D1C4B"/>
<path d="M288.54 727.519L289.213 731.556C289.213 731.556 293.137 781.341 294.259 776.408L304.017 727.519H288.54Z" fill="#373431"/>
<path d="M357.497 260.861C343.952 284.81 335.134 299.279 327.349 329.727C323.728 343.89 323.373 414.254 311.916 480.98C302.836 533.866 287.206 584.815 276.091 626.831C274.255 633.774 284.904 637.386 283.363 643.809C281.819 657.699 279.802 669.456 276.091 679.307C276.091 681.622 265.75 680.663 264.843 683.165C260.581 694.921 262.527 701.686 264.842 712.49C273.33 714.805 295.011 719.205 311.916 719.435C332.635 719.719 341.24 719.435 345.099 706.316C346.678 700.947 346.541 702.458 349.729 691.654C346.541 688.567 342.183 690.509 341.24 687.024C342.783 677.764 343.25 670.047 346.541 653.069C348.336 643.809 357.149 633.64 358.791 623.744C371.427 547.581 385.123 466.816 391.281 440.883C392.756 434.674 393.874 434.504 394.018 440.883C394.952 481.837 394.634 555.123 392.405 623.744C396.803 635.32 401.955 640.755 401.433 653.069C400.912 665.383 399.89 672.361 396.803 687.024C396.106 690.334 390.63 689.339 388.354 691.654C388.315 698.599 388.554 704.818 388.354 707.679C388.354 730.76 401.433 726.909 409.15 727.152C429.252 727.784 453.137 724.065 457.832 719.435C462.398 709.403 463.941 700.142 465.484 684.708C465.391 681.881 452.841 685.986 453.137 683.165C453.948 675.448 454.681 674.676 457.832 660.786C459.078 648.176 471.98 660.962 473.201 646.895C483.582 527.39 486.912 329.605 445.865 261.767C419.012 258.064 384.726 260.05 357.497 260.861Z" fill="url(#paint0_linear_4005_501)"/>
<path d="M395.262 715.576C389.861 717.12 391.147 720.721 392.176 723.293C397.578 730.239 414.298 728.025 425.359 727.152C437.449 725.866 460.703 722.367 456.999 718.663C452.368 714.033 401.198 713.88 395.262 715.576Z" fill="#0D1C4B"/>
<path d="M324.294 353.893C324.294 353.893 324.584 352.751 325.14 350.687C324.946 351.656 324.745 352.67 324.541 353.697L324.294 353.893Z" fill="#4A80CA"/>
<path d="M450.163 246.343L445.864 261.767L358.125 261.26L358.378 246.596L450.163 246.343Z" fill="#882324"/>
<path d="M431.452 131.296C431.452 131.296 440.019 125.227 470.897 177.82C478.554 239.844 466.748 262.174 466.748 262.174C466.748 262.174 454.243 266.205 452.843 263.018C416.623 180.495 431.452 131.296 431.452 131.296Z" fill="#882324"/>
<path d="M431.39 124.455C431.39 121.369 477.062 153.78 505.614 185.42L491.724 260.274C491.724 260.274 431.382 173.128 431.39 124.455Z" fill="#ECBEEC"/>
<path d="M452.728 262.752C452.699 262.688 452.672 262.627 452.646 262.563C452.67 262.623 452.701 262.693 452.728 262.752ZM452.613 262.491C452.592 262.444 452.572 262.394 452.551 262.347C452.569 262.392 452.594 262.446 452.613 262.491ZM452.495 262.221C452.481 262.186 452.467 262.155 452.452 262.122C452.464 262.151 452.483 262.19 452.495 262.221Z" fill="#C87F46"/>
<path d="M456.17 264.244C456.168 264.244 456.168 264.244 456.166 264.244C454.542 264.244 453.266 263.927 452.855 263.044C452.851 263.036 452.847 263.026 452.842 263.018C452.812 262.948 452.783 262.88 452.752 262.81C452.744 262.791 452.735 262.771 452.727 262.752C452.7 262.693 452.67 262.623 452.645 262.563C452.635 262.54 452.622 262.516 452.612 262.491C452.593 262.446 452.569 262.392 452.55 262.347C452.532 262.306 452.513 262.262 452.495 262.221C452.482 262.19 452.464 262.151 452.451 262.122C450.544 257.741 448.78 253.457 447.15 249.271C454.596 249.37 459.286 249.438 459.286 249.438C459.286 249.438 463.056 231.635 462.216 211.069C461.979 205.264 459.292 195.293 455.596 184.216L470.896 177.82C472.773 193.024 473.481 205.842 473.479 216.531C473.475 249.448 466.747 262.174 466.747 262.174C466.747 262.174 466.618 262.215 466.381 262.287C464.963 262.721 459.732 264.244 456.17 264.244Z" fill="#881D1C"/>
<path d="M431.873 123.891C435.498 127.998 460.755 200.186 461.507 221.065C462.339 244.15 446.194 262.59 446.194 262.59C446.194 262.59 358.754 261.647 356.677 262.59C352.817 257.96 349.141 253.853 348.187 247.928C345.102 193.137 327.757 160.365 340.902 151.563C340.902 151.563 381.144 120.888 385.241 123.891C399.001 127.31 417.349 129.908 431.873 123.891Z" fill="#ECBEEC"/>
<path d="M404.827 248.761C404.765 248.759 404.707 248.759 404.644 248.759C404.707 248.759 404.763 248.759 404.827 248.761ZM404.602 248.757C400.651 248.716 396.7 248.677 392.823 248.642C396.7 248.677 400.653 248.716 404.602 248.757Z" fill="#881D1C"/>
<path d="M348.771 248.712C346.188 225.194 344.135 203.241 343.771 185.113C344.246 203.828 346.271 225.931 348.771 248.712Z" fill="#C87F46"/>
<path d="M401.434 714.882L407.44 779.591C407.44 779.591 421.555 795.086 428.945 786.068C432.64 781.558 444.421 776.444 446.192 773.787C442.16 771.553 432.529 765.076 432.529 765.076L434.573 715.036C434.573 715.036 424.256 714.519 417.639 714.496C411.309 714.475 401.434 714.882 401.434 714.882Z" fill="#F5CFA8"/>
<path d="M392.709 248.642C392.67 248.64 392.63 248.64 392.591 248.64C392.63 248.64 392.667 248.64 392.709 248.642ZM392.497 248.64C392.322 248.637 392.151 248.635 391.976 248.633C392.149 248.635 392.324 248.637 392.497 248.64Z" fill="#881D1C"/>
<path d="M467.06 134.554C467.06 134.554 466.348 70.3093 469.554 69.8195C478.942 69.9402 473.358 98.9755 478.008 97.8958C483.507 97.3818 487.328 72.54 493.12 78.0212C496.207 77.7034 485.931 102.749 485.931 102.749C485.931 102.749 495.387 112.123 495.731 114.366C496.075 116.61 491.261 134.46 491.261 134.46L467.06 134.554Z" fill="#F5CFA8"/>
<path d="M433.073 714.913L414.552 735.641C414.552 735.641 405.642 755.237 404.52 750.303L401.434 714.805C401.434 714.805 411.303 713.996 417.639 714.033C423.676 714.069 433.073 714.913 433.073 714.913Z" fill="#373431"/>
<path d="M467.054 134.554C467.054 134.554 457.611 120.948 461.056 118.517C464.501 116.087 485.742 106.084 480.153 112.527C474.565 118.972 471.148 122.571 471.148 122.571L476.862 131.149" fill="#F5CFA8"/>
<path d="M469.998 112.837C469.998 112.837 475.572 105.81 479.622 107.593C483.673 109.376 469.998 112.837 469.998 112.837Z" fill="#373431"/>
<path d="M480.891 113.183C480.891 113.183 476.978 116.659 478.982 119.262C480.452 121.173 485.181 115.5 483.535 119.637C481.888 123.775 482.795 125.685 485.686 124.438C488.578 123.195 476.01 129.462 476.01 129.462L471.15 122.571L480.891 113.183Z" fill="#373431"/>
<path d="M283.363 237.124C283.363 224.776 292.539 207.297 295.71 199.31C358.215 147.607 363.62 131.401 377.128 139.651C396.031 165.825 314.6 222.052 314.6 222.052L346.591 280.703L358.951 286.154L340.411 313.783L283.363 237.124Z" fill="#F5CFA8"/>
<path d="M328.895 299.631C335.069 292.686 339.062 288.828 346.644 281.002L339.062 229.407C339.062 229.407 413.393 156.031 394.49 129.857C390.631 116.739 321.734 157.51 295.714 180.018C285.679 220.146 287.995 205.484 280.277 229.407C276.42 241.362 276.42 237.895 289.368 253.329C295.714 260.274 293.341 257.309 295.714 260.274C308.061 275.708 328.895 299.631 328.895 299.631Z" fill="#ECBEEC"/>
<path d="M466.255 133.424C466.255 133.424 439.428 242.303 451.592 267.991C465.579 274.936 481.689 274.937 497.123 264.133C501.753 248.699 493.264 133.424 493.264 133.424H466.255Z" fill="#ECBEEC"/>
<path d="M458.538 166.899L449.277 234.809V189.278L452.981 183.105L458.538 166.899Z" fill="#CF7FCA"/>
<path d="M316.764 208.754L338.785 230.042C338.863 230.117 338.988 230.116 339.065 230.039L349.684 219.421C349.714 219.391 349.734 219.352 349.74 219.31L356.675 174.616L348.218 217.67C348.2 217.763 348.118 217.831 348.022 217.831H335.117C335.085 217.831 335.053 217.823 335.024 217.809L316.995 208.433C316.79 208.327 316.598 208.594 316.764 208.754Z" fill="#CF7FCA"/>
<path d="M414.553 248.699L356.676 262.59H446.193L450.051 258.731L447.736 254.101H419.955L414.553 248.699Z" fill="#CF7FCA"/>
<path d="M398.346 308.12L395.26 272.622H397.575L400.662 308.12L393.716 436.222H392.945L392.482 436.993L392.173 436.222L398.346 308.12Z" fill="#0D1C4B"/>
<path d="M342.015 712.49C335.071 727.152 276.42 716.348 264.844 712.49C264.073 709.403 263.723 708.129 266.387 707.86C289.28 705.544 336.459 703.229 342.015 712.49Z" fill="#0D1C4B"/>
<path d="M321.551 706.511L312.481 770.862C312.481 770.862 297.647 785.67 290.692 776.311C287.215 771.632 275.691 765.964 274.048 763.225C278.181 761.185 288.108 755.173 288.108 755.173L288.766 706.316C288.766 706.316 298.772 705.066 305.382 705.357C311.706 705.636 321.551 706.511 321.551 706.511Z" fill="#F5CFA8"/>
<path d="M288.556 706.199L288.556 724.609C288.556 724.609 299.921 718.927 319.808 719.495L321.554 706.434C321.554 706.434 311.739 704.895 305.403 704.895C297.253 704.895 288.556 706.199 288.556 706.199Z" fill="#373431"/>
<path d="M496.352 195.452V185.42L497.896 196.223V220.918L496.352 203.169L494.037 201.625L496.352 195.452Z" fill="#CF7FCA"/>
<path d="M448.508 285.741L465.948 316.609C462.399 297.316 449.28 262.59 446.193 262.59H356.676L346.644 281.111L357.448 285.741L339.699 312.75L335.84 308.12L335.068 311.979L339.699 315.837L361.306 283.426L357.448 275.709V264.905L448.508 285.741Z" fill="#0D1C4B"/>
<path d="M426.9 373.714L392.945 436.222L394.489 491.012L429.215 373.714V278.795H426.9V373.714Z" fill="#0D1C4B"/>
<path d="M436.084 750.642H396.804L402.003 776.039L396.804 804.322H495.581V789.892L460.922 776.039L452.835 754.682V737.366L442.438 733.325L436.084 750.642Z" fill="#0D1C4B"/>
<path d="M284.985 750.642H324.265L319.066 776.039L324.265 804.322H225.487V789.892L260.146 776.039L268.233 754.682V737.366L278.631 733.325L284.985 750.642Z" fill="#0D1C4B"/>
<path d="M415.455 68.8933C417.307 67.0413 416.228 66.5782 414.684 66.5782C413.45 66.5782 414.168 67.0927 414.683 67.3499L414.683 68.0744C414.683 68.1055 414.676 68.1361 414.662 68.1639L413.912 69.665C413.655 70.1795 413.603 70.7454 415.455 68.8933Z" fill="#0D1C4B"/>
<path d="M400.663 65.0347C399.17 65.7816 400.966 68.0496 402.497 69.5207C402.58 69.5998 402.713 69.5928 402.779 69.4997C403.302 68.7598 402.649 68.5681 402.649 68.5681C401.713 67.8368 400.777 66.3742 401.714 66.3742C403.586 66.3742 404.522 61.9861 404.522 60.8891C404.522 60.0115 403.898 60.5234 403.586 60.8891C403.586 62.3517 402.673 64.0299 400.663 65.0347Z" fill="#0D1C4B"/>
<path d="M408.378 79.6971C405.291 76.6103 400.918 78.6681 398.345 79.6971C397.574 81.2405 402.975 80.4688 405.291 81.2405L405.3 81.2433C407.607 82.0122 407.607 82.0122 408.377 82.0122C409.15 82.0122 410.04 81.9726 412.236 81.2405C414.552 80.4688 419.027 80.3146 418.41 79.6972C416.095 77.382 409.921 77.3821 408.378 79.6971Z" fill="#0D1C4B"/>
<path d="M412.903 82.114C409.916 84.9689 405.788 83.3876 403.916 82.1296C403.822 82.0665 403.692 82.0912 403.644 82.1935C402.608 84.4059 410.002 85.8096 413.007 83.5555C413.254 83.3077 414.171 82.6782 413.135 82.0806C413.06 82.0375 412.965 82.0545 412.903 82.114Z" fill="#0D1C4B"/>
<path d="M103.745 287.031C102.687 302.734 100.463 334.669 100.04 336.786C116.131 352.877 147.325 339.609 160.911 330.964C163.205 323.201 167.792 304.498 167.792 291.795C167.792 279.091 125.094 283.326 103.745 287.031Z" fill="#F5CFA8"/>
<path d="M138.15 222.455C163.028 218.22 176.79 214.515 191.611 203.929C201.138 206.046 221.464 210.281 226.546 210.281C231.627 210.281 268.891 299.911 286.887 344.726L334.78 405.222C336.19 407.003 336.226 409.504 334.863 411.32C329.316 418.706 319.769 431.393 312.824 440.531C301.814 429.522 282.476 442.649 274.184 450.588C264.127 448.824 243.484 445.507 241.366 446.354C239.249 447.201 233.074 435.415 230.251 429.416L220.227 378.24C220.205 378.129 220.165 378.023 220.107 377.925L204.437 351.286C204.357 351.149 204.245 351.033 204.11 350.948L135.575 307.543C129.064 303.419 120.762 303.404 114.235 307.504L84.8319 325.975C84.2466 326.343 83.4737 326.02 83.3238 325.345L73.1313 279.479C73.0744 279.223 72.9676 278.981 72.817 278.766L0.904817 176.108C0.315905 175.268 0 174.266 0 173.24V68.5575C0 64.0927 2.95978 60.1688 7.25279 58.9422L66.0889 42.1319C66.4584 42.0264 66.8557 42.1419 67.111 42.4291L83.6314 61.0145C86.6308 64.3668 93.4766 72.6593 96.8642 79.0111C101.37 79.0111 94.9838 106.477 94.2792 112.139C94.2183 112.628 94.0291 113.094 93.7054 113.466C77.0656 132.58 80.9998 156.929 98.8993 171.638C101.487 173.764 103.205 176.832 103.322 180.179C104.112 202.759 109.372 222.758 120.5 230.5C120.676 229.971 123.329 234.735 138.15 222.455Z" fill="#A04EFF"/>
<path d="M270.479 486.052L280.536 454.823L303.825 455.882L307.001 464.351C316.176 475.995 334.949 499.709 336.643 501.402C338.337 503.096 335.937 504.225 334.526 504.578C334.349 504.931 334.208 505.743 335.055 506.166C336.114 509.871 333.996 511.384 331.879 509.871C329.409 508.107 323.516 503.52 319.705 499.285C322.881 505.637 316.882 507.225 315.47 504.578L290.593 474.937C288.828 476.172 283.5 480.442 276.301 487.64C269.103 494.839 269.42 489.581 270.479 486.052Z" fill="#F5CFA8"/>
<path d="M83.6314 61.0145C86.6308 64.3668 93.4766 72.6593 96.8642 79.0111C59.7347 116.141 25.4216 93.8672 7.44191 71.6398C3.31433 66.5371 6.18228 59.2481 12.4929 57.4451L66.0889 42.1319C66.4584 42.0264 66.8557 42.1419 67.111 42.4291L83.6314 61.0145Z" fill="#771FE2"/>
<path d="M241.367 446.354C239.249 447.201 233.074 435.415 230.251 429.416C255.556 415.523 292.489 400.7 329.714 406.747C333.264 407.323 334.766 411.45 332.605 414.325C326.967 421.826 318.899 432.537 312.824 440.532C301.814 429.522 282.476 442.649 274.184 450.589C264.127 448.824 243.484 445.507 241.367 446.354Z" fill="#771FE2"/>
<path d="M204.844 338.904L213.313 288.619L209.079 359.547L204.315 351.078L194.258 344.726L204.844 338.904Z" fill="#771FE2"/>
<path d="M52.4023 45.982L66.6938 41.9592C67.7524 43.1943 73.1514 49.1579 85.4314 63.1317C63.8355 84.7277 54.1667 60.8028 52.4023 45.982Z" fill="#A04EFF"/>
<path d="M312.823 440.531C301.39 429.098 282.3 442.472 274.184 450.588C274.36 450.941 275.983 453.764 281.065 462.233C290.804 471.973 302.414 468.056 307.001 464.88C307.177 464.174 308.589 458.316 312.823 440.531Z" fill="#A04EFF"/>
<path d="M85.5374 153.188C80.1762 139.251 86.2784 121.885 92.8418 114.475L51.8767 153.188C51.6979 153.532 58.087 154.014 85.5374 153.188Z" fill="#771FE2"/>
<path d="M98.4523 276.974C88.9255 258.448 98.4527 256.331 115.92 244.157C96.3353 252.096 91.0419 258.448 92.6307 266.917L103.217 307.145L104.276 288.09L98.4523 276.974Z" fill="#771FE2"/>
<path d="M175.732 306.086L169.909 316.672L177.32 306.616L190.552 297.617L203.785 278.033L213.313 286.502L199.551 263.212L188.964 297.088L175.732 306.086Z" fill="#771FE2"/>
<path d="M273.125 348.96L237.132 266.917H246.13L282.653 348.96L328.174 402.421H319.175L273.125 348.96Z" fill="#F9CDFD"/>
<path d="M84.1611 768.176V742.24L116.979 741.181V768.176C116.979 772.834 95.1003 770.117 84.1611 768.176Z" fill="#F5CFA8"/>
<path d="M292.71 740.652L273.125 709.422L299.591 702.012C302.237 708.893 304.568 721.859 307.001 725.831C309.434 729.803 303.051 736.592 292.71 740.652Z" fill="#F5CFA8"/>
<path d="M160.382 330.435C119.625 352.136 109.039 341.021 98.9816 333.61C92.4535 342.609 77.7033 365.475 70.9281 384.954C60.3418 395.54 61.224 528.75 62.9884 594.032C70.0459 638.318 84.1609 730.489 84.1609 744.886C84.1609 759.283 106.039 750.885 116.978 744.886L126.506 594.032L133.387 441.59L203.786 598.796C222.135 634.436 268.256 706.141 276.301 714.186C284.347 722.232 296.592 714.01 301.708 708.893C296.768 689.838 284.77 645.058 276.301 618.38C261.481 603.56 247.895 555.039 242.955 532.632C212.784 389.718 188.965 366.957 160.382 330.435Z" fill="#AF74EE"/>
<path d="M160.382 330.435C119.625 352.136 109.038 341.021 98.9814 333.61C100.393 341.197 113.167 356.371 152.971 356.371C176.261 376.273 211.196 432.415 224.958 457.47C217.547 416.183 184.73 351.607 160.382 330.435Z" fill="#771FE2"/>
<path d="M120.154 388.659L121.742 347.373L123.859 348.431L122.272 388.659L133.387 441.59L131.27 487.111L120.154 388.659Z" fill="#771FE2"/>
<path d="M81.7289 755.321H121.009L115.81 780.718L121.009 809.001H22.2314V794.571L56.8901 780.718L64.9772 759.362V742.046L75.3748 738.005L81.7289 755.321Z" fill="#1C289C"/>
<path d="M288.937 731.624L312.499 705.935L320.968 730.887L344.787 744.821L272.932 810.144L264.365 798.532L284.445 755.161L277.856 744.821L267.575 730.887L273.543 721.463L288.937 731.624Z" fill="#1C289C"/>
<path d="M161.97 189.638V217.691C174.673 230.395 187.024 214.868 191.611 205.517L189.494 162.643L161.97 189.638Z" fill="#F5CFA8"/>
<path d="M161.97 189.638V217.691C165.675 207.634 169.027 200.047 173.615 190.696L189.494 162.643L161.97 189.638Z" fill="#D5AC81"/>
<path d="M161.97 189.638V200.224C167.263 192.813 168.851 190.696 172.556 185.932L189.494 162.643L161.97 189.638Z" fill="#373431"/>
<path d="M229.192 93.8319C195.316 59.9559 178.731 79.7169 174.673 93.8319L172.026 106.006C178.202 106.006 190.552 117.439 190.552 163.172C190.552 220.338 245.601 194.401 250.894 177.993C239.249 177.993 226.016 160.525 231.309 165.818C236.602 171.111 246.13 164.23 250.894 153.115C240.308 163.701 236.25 147.292 235.544 137.765C235.544 127.708 234.274 104.842 229.192 93.8319Z" fill="#29174F"/>
<path d="M134.697 110.05C158.953 87.3905 180.884 98.1455 190.249 107.699C191.183 108.653 191.828 109.83 192.192 111.114C193.865 117.014 196.375 128.588 196.375 139.882C207.385 150.892 197.787 158.584 191.612 161.055C183.143 171.464 164.934 192.284 159.853 192.284C154.85 192.284 140.205 180.657 133.185 174.572C132.966 174.382 132.8 174.161 132.686 173.894C129.099 165.492 124.373 142.74 132.161 114.276C132.602 112.667 133.478 111.189 134.697 110.05Z" fill="#F5CFA8"/>
<path d="M173.614 94.3612C172.767 94.3612 172.556 96.1256 172.556 97.0078V97.5371L185.259 104.418C187.024 103.712 188.858 102.724 186.318 100.184C183.142 97.0078 174.673 94.3612 173.614 94.3612Z" fill="#AF74EE"/>
<path d="M189.494 119.768C191.5 111.743 188.12 121.303 195.115 130.884C195.588 131.532 196.277 132.841 196.702 133.498C196.852 132.939 197.007 133.246 197.061 133.557C197.151 134.082 196.985 133.934 196.702 133.498C196.535 134.126 196.374 135.847 196.374 139.882C207.384 150.892 197.786 158.584 191.611 161.055C183.142 171.464 164.933 192.284 159.852 192.284C154.771 192.284 174.672 173.229 177.319 162.643C183.672 146.234 180.601 149.833 189.494 119.768Z" fill="#D5AC81"/>
<path d="M193.199 145.175L191.082 153.644C191.082 154.174 192.141 153.644 192.67 153.644C197.963 152.056 196.904 144.117 193.199 145.175Z" fill="#373431"/>
<path d="M196.374 139.882L191.851 142.597C191.361 142.89 191.021 143.379 190.915 143.94L187.376 162.643C186.67 149.586 182.489 125.084 172.026 123.474C165.145 122.415 157.735 124.003 152.442 129.296C142.914 122.415 136.033 125.591 130.21 131.413C128.67 135.778 127.96 138.807 127.679 140.711C127.63 141.543 127.592 142.329 127.564 143.058C127.494 142.711 127.496 141.948 127.679 140.711C128.237 131.082 130.106 115.383 132.328 111.829C134.974 107.594 163.557 81.1286 191.611 108.653C194.282 111.274 199.021 130.884 196.374 139.882Z" fill="#29174F"/>
<path d="M164.913 135.331C165.093 135.314 165.155 135.093 165.006 134.99C164.117 134.378 161.936 133.044 160.226 133.386C157.247 133.981 158.039 135.829 157.948 137.378C157.938 137.56 158.152 137.7 158.303 137.598L161.106 135.698L164.913 135.331Z" fill="#0D1C4B"/>
<path d="M129.195 151.932C129.065 152.058 128.856 151.963 128.874 151.784C128.979 150.709 129.365 148.182 130.729 147.095C133.105 145.201 134.007 146.998 135.249 147.927C135.395 148.036 135.364 148.291 135.188 148.34L131.93 149.258L129.195 151.932Z" fill="#0D1C4B"/>
<path d="M153.967 160.144C154.859 159.615 155.855 159.613 156.193 160.142C156.531 160.669 156.083 161.528 155.191 162.057C154.3 162.587 153.304 162.587 152.966 162.059C152.627 161.531 153.077 160.673 153.967 160.144Z" fill="#0D1C4B"/>
<path d="M140.121 154.175C140.395 155.109 139.286 156.535 137.645 157.36C136.005 158.185 134.453 158.097 134.179 157.163C133.901 156.232 135.01 154.805 136.648 153.982C138.288 153.157 139.843 153.244 140.121 154.175Z" fill="#0D1C4B"/>
<path d="M166.704 142.793C166.897 143.747 165.669 145.072 163.963 145.752C162.257 146.432 160.719 146.21 160.526 145.256C160.33 144.304 161.559 142.979 163.261 142.301C164.967 141.62 166.508 141.841 166.704 142.793Z" fill="#0D1C4B"/>
<path d="M157.995 159.156C158.737 156.829 157.644 156.908 156.366 157.568C155.344 158.096 156.159 158.215 156.695 158.208L157.004 158.805C157.018 158.833 157.026 158.863 157.026 158.894L157.047 160.455C157.054 160.991 157.254 161.482 157.995 159.156Z" fill="#0D1C4B"/>
<path d="M144.941 164.056C144.94 165.279 146.585 166.326 149.185 165.321C149.236 165.301 149.279 165.258 149.298 165.206C150.258 162.665 147.149 163.701 147.149 163.701C146.253 163.701 145.999 163.527 147.17 159.292C147.037 158.65 146.504 159.151 146.253 159.482C146.475 160.552 144.941 162.998 144.941 164.056Z" fill="#0D1C4B"/>
<path d="M155.592 169.058C152.132 167.727 149.447 170.832 147.805 172.518C147.739 173.982 151.665 171.52 153.729 171.32L153.736 171.32C155.792 171.121 155.792 171.121 156.39 170.855C156.989 170.589 157.667 170.251 159.119 168.925C160.65 167.528 164.071 165.864 163.378 165.598C160.783 164.6 155.992 166.729 155.592 169.058Z" fill="#0D1C4B"/>
<path d="M160.908 169.927C159.465 173.798 155.06 174.176 152.828 173.86C152.716 173.844 152.609 173.923 152.61 174.036C152.643 176.479 159.909 174.518 161.63 171.179C161.745 170.848 162.295 169.882 161.102 169.796C161.016 169.79 160.938 169.846 160.908 169.927Z" fill="#0D1C4B"/>
<path d="M95.2762 54.1335L83.102 61.0145C79.9261 61.0145 67.752 48.311 67.752 45.6645C67.752 43.0179 101.099 24.492 102.687 26.0799C104.275 27.6678 123.33 23.4333 124.918 23.4333C126.506 23.4333 129.152 27.1385 128.094 29.7851C131.269 32.961 129.681 33.4903 129.681 36.1368C139.844 36.1368 137.092 41.7828 134.445 44.6058H128.094L125.976 46.7231H142.385C146.443 44.6059 155.194 40.9007 157.735 43.0179C161.123 46.4055 145.737 51.8398 137.621 54.1335L112.744 55.7214L122.271 62.6025C128.446 63.8375 138.892 66.837 131.269 68.9542C115.602 68.9542 100.746 59.0737 95.2762 54.1335Z" fill="#F5CFA8"/>
<path d="M113.273 34.5489C106.392 36.1368 107.274 33.3139 106.922 32.4317C106.922 32.0082 106.569 32.2552 106.392 32.4317C94.2181 39.3127 101.099 47.7817 110.097 45.6645C108.404 43.9707 109.392 41.7829 110.097 40.9007L122.272 38.2541C120.507 38.607 115.814 39.3127 111.156 39.3127C110.097 39.3127 107.451 35.8926 113.273 34.5489Z" fill="#373431"/>
<defs>
<linearGradient id="paint0_linear_4005_501" x1="371.131" y1="727.257" x2="371.131" y2="259.598" gradientUnits="userSpaceOnUse">
<stop stop-color="#2331B5"/>
<stop offset="0.655" stop-color="#152087"/>
<stop offset="1" stop-color="#2331B5"/>
</linearGradient>
</defs>
</svg>
