<svg width="131.293945" height="24.616699" viewBox="0 0 131.294 24.6167" fill="none" xmlns="http://www.w3.org/2000/svg" xmlns:xlink="http://www.w3.org/1999/xlink">
	<desc>
			Created with Pixso.
	</desc>
	<defs/>
	<path id="Vector" d="M27.53 2.06C25.41 1.09 23.16 0.39 20.81 0C20.52 0.5 20.19 1.19 19.96 1.73C17.46 1.37 14.99 1.37 12.52 1.73C12.29 1.19 11.95 0.5 11.67 0C9.31 0.39 7.06 1.09 4.96 2.06C0.71 8.33 -0.44 14.45 0.13 20.49C2.96 22.54 5.68 23.79 8.36 24.61C9.01 23.73 9.6 22.77 10.11 21.77C9.14 21.41 8.23 20.97 7.34 20.44C7.57 20.28 7.8 20.1 8.01 19.92C13.36 22.36 19.16 22.36 24.44 19.92C24.67 20.1 24.88 20.28 25.11 20.44C24.23 20.97 23.31 21.41 22.34 21.77C22.85 22.77 23.44 23.73 24.1 24.61C26.77 23.79 29.51 22.54 32.32 20.49C33.03 13.5 31.2 7.43 27.53 2.06ZM10.85 16.77C9.24 16.77 7.93 15.31 7.93 13.52C7.93 11.73 9.21 10.27 10.85 10.27C12.48 10.27 13.8 11.73 13.77 13.52C13.77 15.31 12.48 16.77 10.85 16.77ZM21.63 16.77C20.03 16.77 18.71 15.31 18.71 13.52C18.71 11.73 19.99 10.27 21.63 10.27C23.26 10.27 24.59 11.73 24.56 13.52C24.56 15.31 23.28 16.77 21.63 16.77Z" fill="#FFFFFF" fill-opacity="1.000000" fill-rule="nonzero"/>
	<path id="Vector" d="M43.69 5.15L50.67 5.15C52.34 5.15 53.77 5.41 54.94 5.93C56.1 6.46 56.97 7.18 57.54 8.12C58.12 9.05 58.41 10.12 58.41 11.33C58.41 12.52 58.12 13.58 57.51 14.55C56.91 15.5 55.99 16.27 54.75 16.83C53.52 17.39 52 17.67 50.18 17.67L43.69 17.67L43.69 5.15ZM50.09 14.49C51.23 14.49 52.1 14.21 52.7 13.63C53.31 13.07 53.62 12.29 53.62 11.32C53.62 10.42 53.34 9.69 52.8 9.15C52.26 8.61 51.44 8.33 50.34 8.33L48.16 8.33L48.16 14.49L50.09 14.49Z" fill="#FFFFFF" fill-opacity="1.000000" fill-rule="nonzero"/>
	<path id="Vector" d="M69.28 17.65C68.31 17.41 67.44 17.05 66.67 16.55L66.67 13.58C67.26 14.04 68.03 14.4 69.02 14.7C70 15 70.95 15.14 71.87 15.14C72.3 15.14 72.63 15.09 72.84 14.98C73.05 14.86 73.17 14.73 73.17 14.57C73.17 14.39 73.1 14.24 72.99 14.13C72.87 14.01 72.64 13.91 72.3 13.81L70.15 13.34C68.92 13.06 68.05 12.65 67.52 12.16C67 11.66 66.75 10.99 66.75 10.17C66.75 9.48 66.98 8.87 67.43 8.37C67.89 7.86 68.53 7.46 69.36 7.18C70.2 6.9 71.17 6.76 72.3 6.76C73.3 6.76 74.22 6.86 75.06 7.08C75.89 7.3 76.58 7.58 77.12 7.91L77.12 10.71C76.57 10.38 75.91 10.12 75.19 9.92C74.45 9.73 73.69 9.63 72.92 9.63C71.81 9.63 71.25 9.83 71.25 10.2C71.25 10.38 71.33 10.52 71.51 10.61C71.69 10.71 72 10.79 72.46 10.89L74.25 11.22C75.42 11.42 76.29 11.78 76.86 12.29C77.44 12.8 77.72 13.53 77.72 14.54C77.72 15.62 77.24 16.49 76.29 17.11C75.34 17.75 73.99 18.06 72.25 18.06C71.23 18.03 70.25 17.9 69.28 17.65Z" fill="#FFFFFF" fill-opacity="1.000000" fill-rule="nonzero"/>
	<path id="Vector" d="M82.15 17.28C81.13 16.77 80.34 16.09 79.83 15.24C79.31 14.39 79.06 13.42 79.06 12.34C79.06 11.27 79.33 10.3 79.87 9.46C80.41 8.61 81.2 7.95 82.23 7.46C83.26 6.99 84.51 6.74 85.96 6.74C87.74 6.74 89.22 7.12 90.4 7.87L90.4 11.14C89.99 10.86 89.5 10.61 88.94 10.45C88.38 10.27 87.79 10.19 87.17 10.19C86.05 10.19 85.2 10.38 84.56 10.79C83.94 11.2 83.62 11.73 83.62 12.39C83.62 13.03 83.92 13.55 84.54 13.96C85.15 14.37 86.04 14.58 87.19 14.58C87.78 14.58 88.37 14.5 88.94 14.32C89.52 14.14 90.03 13.94 90.44 13.68L90.44 16.85C89.12 17.64 87.6 18.03 85.87 18.03C84.41 18.03 83.18 17.77 82.15 17.28Z" fill="#FFFFFF" fill-opacity="1.000000" fill-rule="nonzero"/>
	<path id="Vector" d="M95.08 17.28C94.05 16.77 93.26 16.09 92.72 15.22C92.18 14.35 91.9 13.39 91.9 12.3C91.9 11.24 92.18 10.27 92.72 9.43C93.26 8.59 94.05 7.94 95.07 7.46C96.08 6.99 97.31 6.74 98.73 6.74C100.14 6.74 101.37 6.97 102.39 7.46C103.4 7.94 104.19 8.59 104.73 9.43C105.28 10.27 105.54 11.22 105.54 12.3C105.54 13.37 105.28 14.35 104.73 15.22C104.19 16.09 103.42 16.78 102.39 17.28C101.35 17.77 100.14 18.03 98.73 18.03C97.33 18.03 96.12 17.77 95.08 17.28ZM100.52 14.11C100.94 13.68 101.17 13.09 101.17 12.39C101.17 11.66 100.96 11.11 100.52 10.68C100.07 10.25 99.48 10.04 98.74 10.04C97.97 10.04 97.38 10.25 96.94 10.68C96.51 11.11 96.28 11.66 96.28 12.39C96.28 13.11 96.49 13.68 96.94 14.11C97.38 14.55 97.97 14.77 98.74 14.77C99.48 14.75 100.09 14.54 100.52 14.11Z" fill="#FFFFFF" fill-opacity="1.000000" fill-rule="nonzero"/>
	<path id="Vector" d="M116.52 7.4L116.52 11.25C116.06 10.96 115.47 10.81 114.74 10.81C113.79 10.81 113.05 11.11 112.55 11.68C112.04 12.25 111.77 13.16 111.77 14.37L111.77 17.65L107.39 17.65L107.39 7.22L111.69 7.22L111.69 10.55C111.92 9.33 112.32 8.43 112.84 7.86C113.37 7.28 114.06 6.97 114.89 6.97C115.52 6.97 116.06 7.12 116.52 7.4Z" fill="#FFFFFF" fill-opacity="1.000000" fill-rule="nonzero"/>
	<path id="Vector" d="M131.29 4.79L131.29 17.67L126.91 17.67L126.91 15.32C126.53 16.21 125.97 16.88 125.22 17.34C124.46 17.8 123.53 18.03 122.41 18.03C121.43 18.03 120.56 17.78 119.82 17.31C119.08 16.83 118.5 16.16 118.11 15.32C117.72 14.47 117.52 13.52 117.52 12.47C117.5 11.37 117.72 10.38 118.16 9.51C118.59 8.64 119.21 7.97 120 7.48C120.79 6.99 121.69 6.74 122.7 6.74C124.79 6.74 126.19 7.64 126.91 9.46L126.91 4.79L131.29 4.79ZM126.25 14.03C126.69 13.6 126.92 13.03 126.92 12.34C126.92 11.66 126.71 11.12 126.27 10.71C125.83 10.3 125.23 10.09 124.49 10.09C123.76 10.09 123.16 10.3 122.72 10.73C122.28 11.15 122.07 11.7 122.07 12.39C122.07 13.07 122.28 13.62 122.72 14.04C123.16 14.47 123.74 14.68 124.48 14.68C125.22 14.68 125.81 14.47 126.25 14.03Z" fill="#FFFFFF" fill-opacity="1.000000" fill-rule="nonzero"/>
	<path id="Vector" d="M62.45 7.84C63.71 7.84 64.74 6.92 64.74 5.79C64.74 4.66 63.71 3.74 62.45 3.74C61.19 3.74 60.17 4.66 60.17 5.79C60.17 6.92 61.19 7.84 62.45 7.84Z" fill="#FFFFFF" fill-opacity="1.000000" fill-rule="nonzero"/>
	<path id="Vector" d="M64.74 9.25C63.34 9.86 61.6 9.87 60.17 9.25L60.17 17.67L64.74 17.67L64.74 9.25Z" fill="#FFFFFF" fill-opacity="1.000000" fill-rule="nonzero"/>
</svg>
