<svg width="180.000000" height="180.000000" viewBox="0 0 180 180" fill="none" xmlns="http://www.w3.org/2000/svg" xmlns:xlink="http://www.w3.org/1999/xlink">
	<desc>
			Created with Pixso.
	</desc>
	<defs>
		<filter id="filter_54_2706_dd" x="0.000000" y="0.000000" width="180.000000" height="180.000000" filterUnits="userSpaceOnUse" color-interpolation-filters="sRGB">
			<feFlood flood-opacity="0" result="BackgroundImageFix"/>
			<feGaussianBlur in="BackgroundImage" stdDeviation="2"/>
			<feComposite in2="SourceAlpha" operator="in" result="effect_backgroundBlur_1"/>
			<feBlend mode="normal" in="SourceGraphic" in2="effect_backgroundBlur_1" result="shape"/>
		</filter>
		<clipPath id="clip54_2706">
			<rect id="Property 1=Hover" rx="19.500000" width="179.000000" height="179.000000" transform="translate(0.500000 0.500000)" fill="white" fill-opacity="0"/>
		</clipPath>
	</defs>
	<g filter="url(#filter_54_2706_dd)">
		<g clip-path="url(#clip54_2706)">
			<path id="Vector" d="M180 90C180 139.7 139.7 180 90 180C40.29 180 0 139.7 0 90C0 40.29 40.29 0 90 0C139.7 0 180 40.29 180 90Z" fill="#FFFFFF" fill-opacity="0.350000" fill-rule="evenodd"/>
			<path id="Vector" d="M122.61 83.6C127.12 86.65 127.12 93.34 122.61 96.39L74.96 128.67C69.86 132.12 63 128.45 63 122.27L63 57.72C63 51.54 69.86 47.87 74.96 51.32L122.61 83.6Z" fill="#FFFFFF" fill-opacity="1.000000" fill-rule="evenodd"/>
		</g>
	</g>
</svg>
