<svg width="36" height="36" viewBox="0 0 36 36" fill="none" xmlns="http://www.w3.org/2000/svg">
<path fill-rule="evenodd" clip-rule="evenodd" d="M24.3242 18.4866C24.6815 18.4866 25.0241 18.6285 25.2768 18.8812C25.5294 19.1338 25.6714 19.4765 25.6714 19.8338V22.9772H28.8148C29.1721 22.9772 29.5148 23.1192 29.7674 23.3718C30.0201 23.6244 30.162 23.9671 30.162 24.3244C30.162 24.6817 30.0201 25.0244 29.7674 25.277C29.5148 25.5297 29.1721 25.6716 28.8148 25.6716H25.6714V28.8151C25.6714 29.1724 25.5294 29.515 25.2768 29.7677C25.0241 30.0203 24.6815 30.1622 24.3242 30.1622C23.9669 30.1622 23.6242 30.0203 23.3716 29.7677C23.1189 29.515 22.977 29.1724 22.977 28.8151V25.6716H19.8335C19.4762 25.6716 19.1336 25.5297 18.8809 25.277C18.6283 25.0244 18.4863 24.6817 18.4863 24.3244C18.4863 23.9671 18.6283 23.6244 18.8809 23.3718C19.1336 23.1192 19.4762 22.9772 19.8335 22.9772H22.977V19.8338C22.977 19.4765 23.1189 19.1338 23.3716 18.8812C23.6242 18.6285 23.9669 18.4866 24.3242 18.4866Z" fill="#80848E"/>
<path fill-rule="evenodd" clip-rule="evenodd" d="M15.589 15.5972C18.5007 15.5972 21.565 15.1909 23.3514 17.3889L22.4533 19.1806L21.9272 19.3028C21.0622 19.302 20.2215 19.6134 19.5373 20.188C18.8531 20.7627 18.3643 21.5679 18.1476 22.4772C17.931 23.3865 17.9989 24.3481 18.3407 25.2109C18.6824 26.0737 19.2786 26.7886 20.0355 27.2433H6.813C6.55439 27.2433 6.30636 27.1318 6.12349 26.9332C5.94063 26.7347 5.83789 26.4654 5.83789 26.1846C5.83789 23.3766 6.86524 20.6837 8.69393 18.6982C10.5226 16.7127 13.0028 15.5972 15.589 15.5972Z" fill="#80848E"/>
<path fill-rule="evenodd" clip-rule="evenodd" d="M22.3782 9.72961C22.3782 11.0199 21.8656 12.2573 20.9533 13.1696C20.0409 14.0819 18.8035 14.5945 17.5133 14.5945C16.2231 14.5945 14.9857 14.0819 14.0733 13.1696C13.161 12.2573 12.6484 11.0199 12.6484 9.72961C12.6484 8.43937 13.161 7.20197 14.0733 6.28963C14.9857 5.37729 16.2231 4.86475 17.5133 4.86475C18.8035 4.86475 20.0409 5.37729 20.9533 6.28963C21.8656 7.20197 22.3782 8.43937 22.3782 9.72961Z" fill="#80848E"/>
</svg>
