<svg width="41" height="31" viewBox="0 0 41 31" fill="none" xmlns="http://www.w3.org/2000/svg">
<path d="M34.7591 2.60399C32.0862 1.38467 29.2477 0.495997 26.2847 0C25.9118 0.64067 25.4974 1.50866 25.2073 2.19066C22.0559 1.73599 18.9272 1.73599 15.8193 2.19066C15.5292 1.50866 15.0941 0.64067 14.7418 0C11.7582 0.495997 8.91966 1.38467 6.26549 2.60399C0.89914 10.4986 -0.551234 18.2073 0.173951 25.8126C3.73771 28.3959 7.17718 29.9666 10.5565 31C11.3853 29.8839 12.1312 28.6852 12.7735 27.4246C11.5511 26.9699 10.3908 26.4119 9.27194 25.7506C9.56201 25.544 9.8521 25.3167 10.1215 25.0893C16.876 28.1687 24.1921 28.1687 30.8637 25.0893C31.1538 25.3167 31.4232 25.544 31.7133 25.7506C30.5944 26.4119 29.4341 26.9699 28.2116 27.4246C28.854 28.6852 29.5999 29.8839 30.4286 31C33.8059 29.9666 37.2661 28.3959 40.8112 25.8126C41.702 17.0087 39.4002 9.36204 34.7591 2.60399ZM13.7059 21.1213C11.6754 21.1213 10.0178 19.282 10.0178 17.0293C10.0178 14.7767 11.6339 12.9373 13.7059 12.9373C15.7571 12.9373 17.4353 14.7767 17.3939 17.0293C17.3939 19.282 15.7571 21.1213 13.7059 21.1213ZM27.3208 21.1213C25.2902 21.1213 23.6305 19.282 23.6305 17.0293C23.6305 14.7767 25.2487 12.9373 27.3208 12.9373C29.372 12.9373 31.0502 14.7767 31.0088 17.0293C31.0088 19.282 29.3927 21.1213 27.3208 21.1213Z" fill="white"/>
</svg>
