<svg width="37" height="38" viewBox="0 0 37 38" fill="none" xmlns="http://www.w3.org/2000/svg">
<circle cx="18.5" cy="18.9275" r="18.5" fill="#23A559"/>
<path fill-rule="evenodd" clip-rule="evenodd" d="M10.0139 21.929C10.1491 20.7679 10.2843 19.6069 10.4195 18.5232C10.7496 15.8772 12.3122 13.3081 14.678 12.3599C15.861 11.8858 26.1837 8.87985 27.4536 9.51529C28.4 9.98881 27.9268 16.6263 27.4536 19.4714C27.2337 20.7941 26.5073 25.1606 22.7219 26.5828C18.4634 28.1829 9.47317 29.4275 9 29.4275C9.33798 27.7343 9.67595 24.8317 10.0139 21.929ZM19 23.4275C21.2091 23.4275 23 21.6366 23 19.4275C23 17.2184 21.2091 15.4275 19 15.4275C16.7909 15.4275 15 17.2184 15 19.4275C15 21.6366 16.7909 23.4275 19 23.4275Z" fill="#2C2E32"/>
</svg>
