<svg width="79" height="79" viewBox="0 0 79 79" fill="none" xmlns="http://www.w3.org/2000/svg">
<rect width="79" height="79" rx="39.5" fill="#2C2E32"/>
<path d="M53.7591 26.604C51.0862 25.3847 48.2477 24.496 45.2847 24C44.9118 24.6407 44.4974 25.5087 44.2073 26.1907C41.0559 25.736 37.9272 25.736 34.8193 26.1907C34.5292 25.5087 34.0941 24.6407 33.7418 24C30.7582 24.496 27.9197 25.3847 25.2655 26.604C19.8991 34.4986 18.4488 42.2073 19.174 49.8126C22.7377 52.3959 26.1772 53.9666 29.5565 55C30.3853 53.8839 31.1312 52.6852 31.7735 51.4246C30.5511 50.9699 29.3908 50.4119 28.2719 49.7506C28.562 49.544 28.8521 49.3167 29.1215 49.0893C35.876 52.1687 43.1921 52.1687 49.8637 49.0893C50.1538 49.3167 50.4232 49.544 50.7133 49.7506C49.5944 50.4119 48.4341 50.9699 47.2116 51.4246C47.854 52.6852 48.5999 53.8839 49.4286 55C52.8059 53.9666 56.2661 52.3959 59.8112 49.8126C60.702 41.0087 58.4002 33.362 53.7591 26.604ZM32.7059 45.1213C30.6754 45.1213 29.0178 43.282 29.0178 41.0293C29.0178 38.7767 30.6339 36.9373 32.7059 36.9373C34.7571 36.9373 36.4353 38.7767 36.3939 41.0293C36.3939 43.282 34.7571 45.1213 32.7059 45.1213ZM46.3208 45.1213C44.2902 45.1213 42.6305 43.282 42.6305 41.0293C42.6305 38.7767 44.2487 36.9373 46.3208 36.9373C48.372 36.9373 50.0502 38.7767 50.0088 41.0293C50.0088 43.282 48.3927 45.1213 46.3208 45.1213Z" fill="white"/>
</svg>
