<svg width="20" height="20" viewBox="0 0 20 20" fill="none" xmlns="http://www.w3.org/2000/svg">
<path d="M9.88325 13.5675V16.8423V13.5675ZM9.06453 16.8423V13.5675V16.8423ZM4.97097 16.8423H13.9768H4.97097ZM3.7429 2.10547H15.2049C16.1092 2.10547 16.8423 2.83857 16.8423 3.7429V11.93C16.8423 12.8344 16.1092 13.5675 15.2049 13.5675H3.7429C2.83857 13.5675 2.10547 12.8344 2.10547 11.93V3.7429C2.10547 2.83857 2.83857 2.10547 3.7429 2.10547Z" fill="#EBECEE"/>
<path d="M9.88325 13.5675V16.8423M9.06453 16.8423V13.5675M4.97097 16.8423H13.9768M3.7429 2.10547H15.2049C16.1092 2.10547 16.8423 2.83857 16.8423 3.7429V11.93C16.8423 12.8344 16.1092 13.5675 15.2049 13.5675H3.7429C2.83857 13.5675 2.10547 12.8344 2.10547 11.93V3.7429C2.10547 2.83857 2.83857 2.10547 3.7429 2.10547Z" stroke="#EBECEE" stroke-width="1.16995" stroke-linecap="round"/>
</svg>
