<svg width="40" height="40" viewBox="0 0 40 40" fill="none" xmlns="http://www.w3.org/2000/svg">
<path d="M19.9989 5C15.8239 5 12.4395 8.44397 12.4395 12.6923C12.4395 14.2931 12.7399 15.5869 11.8526 18.4615C11.5259 19.5198 10.1979 21.6677 8.79668 23.7635C7.27636 26.0375 8.86826 29.1667 11.6036 29.1667C17.2004 29.1667 22.7972 29.1667 28.394 29.1667C31.1294 29.1667 32.7212 26.0375 31.2009 23.7635C29.7997 21.6677 28.4717 19.5198 28.145 18.4615C27.2577 15.5869 27.558 14.2931 27.558 12.6923C27.558 8.44397 24.1737 5 19.9989 5ZM19.9989 5V2.5M24.9989 29.1667V30C24.9989 33.3137 22.7602 35 19.9989 35C17.2374 35 14.9988 33.3137 14.9988 30V29.1667" stroke="#7881E1" stroke-width="1.5" stroke-linecap="round"/>
</svg>
