<svg width="40" height="40" viewBox="0 0 40 40" fill="none" xmlns="http://www.w3.org/2000/svg">
<path d="M4.16602 31.6667C4.16602 27.1481 8.27007 24.1667 13.3327 24.1667C18.3953 24.1667 22.4993 27.1481 22.4993 31.6667M35.8327 27.5001C35.8327 22.9814 31.7287 20.0001 26.666 20.0001C24.82 20.0001 23.1028 20.3761 21.666 21.0764M17.4993 15.0001C17.4993 17.3012 15.6339 19.1667 13.3327 19.1667C11.0315 19.1667 9.16602 17.3012 9.16602 15.0001C9.16602 12.6989 11.0315 10.8334 13.3327 10.8334C15.6339 10.8334 17.4993 12.6989 17.4993 15.0001ZM30.8327 10.8334C30.8327 13.1346 28.9672 15.0001 26.666 15.0001C24.3648 15.0001 22.4993 13.1346 22.4993 10.8334C22.4993 8.53223 24.3648 6.66675 26.666 6.66675C28.9672 6.66675 30.8327 8.53223 30.8327 10.8334Z" stroke="#7881E1" stroke-width="1.5" stroke-linecap="round"/>
</svg>
