<svg width="40" height="40" viewBox="0 0 40 40" fill="none" xmlns="http://www.w3.org/2000/svg">
<path d="M15.0928 9.03603C15.0319 9.34795 15 9.67025 15 10C15 12.7614 17.2385 15 20 15C22.7615 15 25 12.7614 25 10C25 9.80562 24.9888 9.61383 24.9673 9.42522M15.0928 9.03603C15.5421 6.73587 17.5683 5 20 5C22.567 5 24.6823 6.93452 24.9673 9.42522M15.0928 9.03603C9.917 10.8679 6.20932 15.8054 6.20932 21.6088C6.20932 22.6717 6.33368 23.7055 6.56867 24.6965M24.9673 9.42522C29.6275 11.5033 32.876 16.1767 32.876 21.6088C32.876 22.4567 32.7968 23.286 32.6455 24.0898M6.56867 24.6965C5.6028 25.6082 5 26.9003 5 28.3333C5 31.0948 7.23858 33.3333 10 33.3333C10.8185 33.3333 11.5912 33.1367 12.2731 32.788M6.56867 24.6965C7.46408 23.8515 8.67153 23.3333 10 23.3333C12.7614 23.3333 15 25.5718 15 28.3333C15 30.2762 13.8919 31.9603 12.2731 32.788M32.6455 24.0898C31.8782 23.6103 30.9715 23.3333 30 23.3333C27.2385 23.3333 25 25.5718 25 28.3333C25 30.0727 25.8882 31.6045 27.2357 32.5003M32.6455 24.0898C34.0595 24.9732 35 26.5433 35 28.3333C35 31.0948 32.7615 33.3333 30 33.3333C28.9778 33.3333 28.0275 33.0267 27.2357 32.5003M27.2357 32.5003C25.062 34.0383 22.4078 34.9422 19.5427 34.9422C16.8608 34.9422 14.3641 34.1503 12.2731 32.788" stroke="#7881E1" stroke-width="1.5" stroke-linecap="round"/>
</svg>
