<svg width="24" height="24" viewBox="0 0 24 24" fill="none" xmlns="http://www.w3.org/2000/svg">
<path d="M6.4443 3.6853C8.08879 2.58649 10.0222 2 12 2C13.3132 2 14.6136 2.25866 15.8268 2.7612C17.0401 3.26375 18.1425 4.00035 19.0711 4.92893C19.9997 5.85752 20.7363 6.95991 21.2388 8.17317C21.7413 9.38642 22 10.6868 22 12C22 13.9778 21.4135 15.9112 20.3147 17.5557C19.2159 19.2002 17.6541 20.4819 15.8268 21.2388C13.9996 21.9957 11.9889 22.1937 10.0491 21.8079C8.10929 21.422 6.32746 20.4696 4.92894 19.0711C3.53041 17.6725 2.578 15.8907 2.19215 13.9509C1.8063 12.0111 2.00433 10.0004 2.76121 8.17317C3.51809 6.3459 4.79981 4.78412 6.4443 3.6853Z" fill="#80848E"/>
<path d="M14.9491 14.2245C14.1137 14.7476 13.073 15.0329 12 15.0329C10.927 15.0329 9.88627 14.7476 9.05092 14.2245C8.79573 14.0597 8.46673 13.5805 8.1363 13.6041C7.80588 13.6278 7.50108 13.7524 7.28898 13.9506C7.07687 14.1489 6.97482 14.4044 7.00529 14.661C7.09561 15.4219 7.77362 15.9602 8.47375 16.2715C9.54117 16.7461 10.7558 17 12 17C13.2442 17 14.4588 16.7461 15.5263 16.2715C16.2264 15.9602 16.9044 15.4219 16.9947 14.661C17.0252 14.4044 16.9231 14.1489 16.711 13.9506C16.606 13.8525 16.4771 13.7714 16.3317 13.7119C16.1863 13.6525 16.0273 13.6158 15.8637 13.6041C15.5333 13.5805 15.2043 14.0597 14.9491 14.2245Z" fill="#2C2E32"/>
<path d="M9 11C9.19778 11 9.39112 10.9414 9.55557 10.8315C9.72002 10.7216 9.84819 10.5654 9.92388 10.3827C9.99957 10.2 10.0194 9.99889 9.98079 9.80491C9.9422 9.61093 9.84696 9.43275 9.70711 9.29289C9.56725 9.15304 9.38907 9.0578 9.19509 9.01922C9.00111 8.98063 8.80004 9.00043 8.61732 9.07612C8.43459 9.15181 8.27841 9.27998 8.16853 9.44443C8.05865 9.60888 8 9.80222 8 10C8 10.2652 8.10536 10.5196 8.29289 10.7071C8.48043 10.8946 8.73478 11 9 11ZM15 9C14.8022 9 14.6089 9.05865 14.4444 9.16853C14.28 9.27841 14.1518 9.43459 14.0761 9.61732C14.0004 9.80004 13.9806 10.0011 14.0192 10.1951C14.0578 10.3891 14.153 10.5673 14.2929 10.7071C14.4327 10.847 14.6109 10.9422 14.8049 10.9808C14.9989 11.0194 15.2 10.9996 15.3827 10.9239C15.5654 10.8482 15.7216 10.72 15.8315 10.5556C15.9414 10.3911 16 10.1978 16 10C16 9.73478 15.8946 9.48043 15.7071 9.29289C15.5196 9.10536 15.2652 9 15 9Z" fill="#2C2E32"/>
</svg>
