<svg width="22" height="22" viewBox="0 0 24 24" fill="none" xmlns="http://www.w3.org/2000/svg">
<path fill-rule="evenodd" clip-rule="evenodd" d="M12 3C9.5556 3 9.2496 3.0108 8.2893 3.054C7.3317 3.0981 6.6774 3.2502 6.105 3.4725C5.50424 3.69826 4.95998 4.0524 4.5102 4.5102C4.05242 4.96 3.69829 5.50425 3.4725 6.105C3.2502 6.6774 3.0981 7.3317 3.054 8.2893C3.0099 9.2496 3 9.5556 3 12C3 14.4444 3.0099 14.7504 3.054 15.7107C3.0981 16.6683 3.2502 17.3226 3.4725 17.895C3.69831 18.4957 4.05244 19.04 4.5102 19.4898C4.96001 19.9476 5.50426 20.3017 6.105 20.5275C6.6774 20.7498 7.3317 20.9019 8.2893 20.946C9.2496 20.9892 9.5556 21 12 21C14.4444 21 14.7504 20.9892 15.7107 20.946C16.6683 20.9019 17.3226 20.7498 17.895 20.5275C18.4957 20.3017 19.04 19.9476 19.4898 19.4898C19.9476 19.04 20.3017 18.4957 20.5275 17.895C20.7498 17.3226 20.9019 16.6683 20.946 15.7107C20.9892 14.7504 21 14.4444 21 12C21 9.5556 20.9892 9.2496 20.946 8.2893C20.9019 7.3317 20.7498 6.6774 20.5275 6.105C20.3017 5.50425 19.9476 4.96 19.4898 4.5102C19.04 4.0524 18.4958 3.69826 17.895 3.4725C17.3226 3.2502 16.6683 3.0981 15.7107 3.054C14.7504 3.0108 14.4444 3 12 3ZM17.8842 7.1958C17.8842 7.33763 17.8563 7.47807 17.802 7.6091C17.7477 7.74013 17.6682 7.85919 17.5679 7.95948C17.4676 8.05976 17.3485 8.13932 17.2175 8.19359C17.0865 8.24787 16.946 8.2758 16.8042 8.2758C16.6624 8.2758 16.5219 8.24787 16.3909 8.19359C16.2599 8.13932 16.1408 8.05976 16.0405 7.95948C15.9402 7.85919 15.8607 7.74013 15.8064 7.6091C15.7521 7.47807 15.7242 7.33763 15.7242 7.1958C15.7242 6.90937 15.838 6.63466 16.0405 6.43212C16.2431 6.22959 16.5178 6.1158 16.8042 6.1158C17.0906 6.1158 17.3653 6.22959 17.5679 6.43212C17.7704 6.63466 17.8842 6.90937 17.8842 7.1958ZM12.0004 15.0001C11.2048 15.0001 10.4419 14.6841 9.8793 14.1215C9.31675 13.559 9.00071 12.796 9.00071 12.0004C9.00071 11.2048 9.31675 10.4419 9.8793 9.8793C10.4419 9.31675 11.2048 9.00071 12.0004 9.00071C12.796 9.00071 13.559 9.31675 14.1215 9.8793C14.6841 10.4419 15.0001 11.2048 15.0001 12.0004C15.0001 12.796 14.6841 13.559 14.1215 14.1215C13.559 14.6841 12.796 15.0001 12.0004 15.0001ZM12.0004 7.37891C11.3935 7.37891 10.7925 7.49845 10.2318 7.7307C9.67113 7.96295 9.16166 8.30337 8.73251 8.73251C8.30337 9.16166 7.96295 9.67113 7.7307 10.2318C7.49845 10.7925 7.37891 11.3935 7.37891 12.0004C7.37891 12.6073 7.49845 13.2083 7.7307 13.769C7.96295 14.3297 8.30337 14.8392 8.73251 15.2683C9.16166 15.6974 9.67113 16.0379 10.2318 16.2701C10.7925 16.5024 11.3935 16.6219 12.0004 16.6219C13.2261 16.6219 14.4016 16.135 15.2683 15.2683C16.135 14.4016 16.6219 13.2261 16.6219 12.0004C16.6219 10.7747 16.135 9.59921 15.2683 8.73251C14.4016 7.86581 13.2261 7.37891 12.0004 7.37891ZM17.3405 7.41817C17.3696 7.3478 17.3846 7.27238 17.3846 7.19621C17.3846 7.04239 17.3235 6.89486 17.2147 6.78609C17.106 6.67732 16.9584 6.61621 16.8046 6.61621C16.6508 6.61621 16.5033 6.67732 16.3945 6.78609C16.2857 6.89486 16.2246 7.04238 16.2246 7.19621C16.2246 7.27238 16.2396 7.3478 16.2688 7.41817C16.2979 7.48854 16.3406 7.55248 16.3945 7.60633C16.4483 7.66019 16.5123 7.70291 16.5827 7.73206C16.653 7.76121 16.7284 7.77621 16.8046 7.77621C16.8808 7.77621 16.9562 7.76121 17.0266 7.73206C17.0969 7.70292 17.1609 7.66019 17.2147 7.60633C17.2686 7.55247 17.3113 7.48853 17.3405 7.41817ZM17.8024 7.60951C17.8567 7.47848 17.8846 7.33804 17.8846 7.19621C17.8846 6.90978 17.7708 6.63507 17.5683 6.43254C17.3657 6.23 17.091 6.11621 16.8046 6.11621C16.5182 6.11621 16.2435 6.23 16.0409 6.43254C15.8384 6.63507 15.7246 6.90978 15.7246 7.19621C15.7246 7.33804 15.7525 7.47848 15.8068 7.60951C15.8611 7.74054 15.9406 7.8596 16.0409 7.95989C16.1412 8.06017 16.2603 8.13973 16.3913 8.194C16.5223 8.24828 16.6628 8.27621 16.8046 8.27621C16.9464 8.27621 17.0869 8.24828 17.2179 8.194C17.3489 8.13973 17.468 8.06017 17.5683 7.95989C17.6686 7.8596 17.7481 7.74054 17.8024 7.60951Z" fill="white"/>
</svg>
