<svg width="79" height="80" viewBox="0 0 79 80" fill="none" xmlns="http://www.w3.org/2000/svg">
<rect y="0.269043" width="79" height="79" rx="39.5" fill="#2C2E32"/>
<circle cx="39.5" cy="39.9275" r="18.5" fill="#23A559"/>
<path fill-rule="evenodd" clip-rule="evenodd" d="M31.0139 42.929C31.1491 41.7679 31.2843 40.6069 31.4195 39.5232C31.7496 36.8772 33.3122 34.3081 35.678 33.3599C36.861 32.8858 47.1837 29.8798 48.4536 30.5153C49.4 30.9888 48.9268 37.6263 48.4536 40.4714C48.2337 41.7941 47.5073 46.1606 43.7219 47.5828C39.4634 49.1829 30.4732 50.4275 30 50.4275C30.338 48.7343 30.676 45.8317 31.0139 42.929ZM40 44.4275C42.2091 44.4275 44 42.6366 44 40.4275C44 38.2184 42.2091 36.4275 40 36.4275C37.7909 36.4275 36 38.2184 36 40.4275C36 42.6366 37.7909 44.4275 40 44.4275Z" fill="#2C2E32"/>
</svg>
