<svg width="36" height="37" viewBox="0 0 36 37" fill="none" xmlns="http://www.w3.org/2000/svg">
<path d="M21.4053 13.2621C23.1496 14.3901 25.7792 17.2058 25.7792 19.9596C25.7792 22.7134 23.1496 25.529 21.4053 26.6571M21.4053 9.25684C26.2174 9.99166 30.162 15.5068 30.162 19.9596C30.162 24.4124 27.5322 28.8785 21.4053 30.6622" stroke="#80848E" stroke-width="1.84828" stroke-linecap="round"/>
<path d="M16.9772 31.1246L12.3723 25.6052C12.0997 25.2784 11.7518 25.0987 11.3919 25.0987H7.44383C5.7848 25.0987 5.83808 23.1324 5.83808 20.8243L5.83828 18.1216C5.83828 15.8135 5.7848 13.8472 7.44383 13.8472H11.3919C11.7518 13.8472 12.0997 13.6675 12.3723 13.3407L16.9772 7.82132C17.9508 6.65447 19.4595 7.61669 19.4595 9.40439V29.5415C19.4595 31.3293 17.9508 32.2914 16.9772 31.1246Z" fill="#80848E"/>
</svg>
