<svg width="22" height="22" viewBox="0 0 24 24" fill="none" xmlns="http://www.w3.org/2000/svg">
<path fill-rule="evenodd" clip-rule="evenodd" d="M22.5 11.934V11.9339C22.5 11.8823 22.5 11.8238 22.4977 11.7559C22.4956 11.5917 22.4919 11.4101 22.4878 11.217C22.4872 11.1867 22.4866 11.1562 22.4859 11.1254C22.4672 10.4715 22.4344 9.81992 22.3828 9.20586C22.3125 8.35977 22.2094 7.6543 22.0687 7.12461C21.9203 6.57183 21.6295 6.06769 21.2252 5.66257C20.8209 5.25745 20.3173 4.96554 19.7648 4.81602C19.1016 4.63789 17.8031 4.52773 15.975 4.45977C15.1055 4.42695 14.175 4.40586 13.2445 4.39414C12.9539 4.38996 12.682 4.38764 12.4337 4.38553C12.4036 4.38527 12.3739 4.38502 12.3445 4.38477H11.6555C11.6261 4.38502 11.5964 4.38527 11.5663 4.38553C11.318 4.38764 11.0461 4.38996 10.7555 4.39414C9.825 4.40586 8.89453 4.42695 8.025 4.45977C6.19687 4.53008 4.89609 4.64023 4.23516 4.81602C3.6825 4.96517 3.17876 5.25696 2.7744 5.66214C2.37004 6.06732 2.07928 6.57165 1.93125 7.12461C1.78828 7.6543 1.6875 8.35977 1.61719 9.20586C1.56562 9.81992 1.53281 10.4715 1.51406 11.1254C1.50745 11.3391 1.50498 11.5405 1.50277 11.7215L1.50234 11.7559C1.50234 11.7922 1.50167 11.8258 1.50105 11.8572C1.50051 11.8845 1.5 11.91 1.5 11.934V12.0652C1.5 12.1168 1.5 12.1754 1.50234 12.2434C1.50437 12.4074 1.50814 12.5889 1.51215 12.7818C1.51279 12.8122 1.51342 12.8429 1.51406 12.8738C1.53281 13.5277 1.56562 14.1793 1.61719 14.7934C1.6875 15.6395 1.79063 16.3449 1.93125 16.8746C2.23125 17.9973 3.1125 18.8832 4.23516 19.1832C4.89609 19.3613 6.19687 19.4715 8.025 19.5395C8.89453 19.5723 9.825 19.5934 10.7555 19.6051C11.0461 19.6093 11.318 19.6116 11.5663 19.6137L11.6555 19.6145H12.3445L12.4337 19.6137C12.682 19.6116 12.9539 19.6093 13.2445 19.6051C14.175 19.5934 15.1055 19.5723 15.975 19.5395C17.8031 19.4691 19.1039 19.359 19.7648 19.1832C20.8875 18.8832 21.7687 17.9996 22.0687 16.8746C22.2117 16.3449 22.3125 15.6395 22.3828 14.7934C22.4344 14.1793 22.4672 13.5277 22.4859 12.8738C22.4925 12.6601 22.495 12.4588 22.4972 12.2777L22.4977 12.2434C22.4977 12.207 22.4983 12.1734 22.499 12.1421C22.4995 12.1148 22.5 12.0892 22.5 12.0652V11.934ZM10.9141 13.4017L13.3522 11.983L10.9141 10.5853V13.4017ZM9.91406 14.2712C9.91406 14.6568 10.3322 14.8973 10.6655 14.7033L14.6033 12.412C14.9359 12.2184 14.9344 11.7374 14.6005 11.546L10.6627 9.28857C10.3294 9.09748 9.91406 9.33813 9.91406 9.72235V14.2712Z" fill="white"/>
</svg>
